<svg width="1079" height="482" viewBox="0 0 1079 482" fill="none" xmlns="http://www.w3.org/2000/svg">
<mask id="mask0_1323_1890" style="mask-type:alpha" maskUnits="userSpaceOnUse" x="0" y="0" width="1079" height="482">
<rect width="1079" height="482" fill="white"/>
</mask>
<g mask="url(#mask0_1323_1890)">
<g filter="url(#filter0_dii_1323_1890)">
<path d="M59.304 134.492C61.7756 120.475 69.9314 109.83 83.7715 102.556C97.6115 95.282 115.392 91.1908 137.113 90.2821C140.194 80.8741 145.457 73.865 152.904 69.2548C160.351 64.6446 166.603 62.7852 171.658 63.6766C176.943 64.6085 180.816 66.8314 183.276 70.3454C186.007 73.6701 186.947 77.7453 186.096 82.5708C184.111 93.8305 174.806 100.245 158.18 101.816C143.389 165.549 135.851 198.219 135.567 199.828C143.15 197.137 151.841 194.879 161.64 193.052C171.71 191.037 178.698 190.374 182.604 191.063C186.51 191.751 188.322 192.9 188.038 194.509C187.511 197.496 185.788 199.206 182.869 199.639C167.082 201.831 150.409 206.354 132.852 213.21C122.424 261.601 116.129 290.581 113.968 300.151C107.578 326.983 97.9574 346.61 85.1048 359.034C72.2522 371.458 56.6343 376.049 38.2513 372.807C23.7746 370.255 13.3386 362.254 6.94339 348.806C0.507625 335.588 -1.4542 321.855 1.05791 307.608C4.62349 287.387 15.1099 269.57 32.5172 254.159C49.965 238.518 74.962 223.734 107.508 209.807L133.952 102.164C103.877 102.073 87.0776 112.024 83.5525 132.015C82.5396 137.76 80.4856 142.018 77.3907 144.79C74.5256 147.601 71.2547 148.683 67.5781 148.035C60.6844 146.819 57.9264 142.305 59.304 134.492ZM45.2648 361.249C60.8904 364.005 73.141 348.276 82.0167 314.065C86.4748 296.844 90.6829 279.697 94.6408 262.625C98.8286 245.594 101.801 233.442 103.557 226.17C92.9604 231.172 84.3644 235.58 77.7688 239.392C71.2138 242.975 63.9763 247.741 56.0564 253.689C40.9059 265.708 31.5479 281.828 27.9823 302.049C24.5383 321.581 25.2365 337.105 30.0771 348.62C33.3086 355.824 38.3711 360.034 45.2648 361.249ZM172.694 75.9428C167.638 75.0514 163.739 79.6949 160.997 89.8733C169.715 88.8043 174.439 86.2017 175.168 82.0655C175.816 78.3889 174.992 76.348 172.694 75.9428Z" fill="url(#paint0_linear_1323_1890)"/>
<path d="M282.312 185.19C292.03 183.824 298.795 182.41 302.606 180.95C306.688 179.3 309.749 178.063 311.79 177.238L316.352 175.555C317.622 175.068 318.602 174.885 319.292 175.007C321.13 175.331 321.867 176.527 321.502 178.595C321.138 180.663 316.928 183.712 308.872 187.741C300.857 191.54 291.2 194.576 279.901 196.849C274.889 215.867 266.044 230.419 253.367 240.504C240.69 250.589 224.585 253.91 205.053 250.466C190.806 247.954 180.884 240.399 175.286 227.803C169.729 214.976 168.288 200.98 170.962 185.814C173.676 170.418 180.71 156.731 192.062 144.754C203.644 132.817 216.559 128.105 230.806 130.617C238.05 127.156 246.038 126.195 254.77 127.735C263.732 129.315 271.174 135.484 277.096 146.243C283.017 157.001 284.756 169.984 282.312 185.19ZM256.808 198.818L244.278 197.32C233.707 195.456 225.293 190.774 219.033 183.273C212.815 175.542 210.374 167.885 211.711 160.302C213.048 152.719 215.467 146.393 218.967 141.324C207.708 147.394 200.053 161.919 196.001 184.898C194.056 195.928 194.49 206.903 197.303 217.824C200.157 228.516 206.524 234.732 216.405 236.475C226.286 238.217 234.713 235.438 241.687 228.138C248.701 220.608 253.741 210.835 256.808 198.818ZM245.526 137.833C241.85 137.185 238.673 138.402 235.998 141.484C233.362 144.336 231.7 147.716 231.011 151.622C229.512 160.124 231.169 167.524 235.982 173.822C241.024 180.161 247.452 184.019 255.265 185.397L259.401 186.126C260.927 174.785 260.777 164.215 258.951 154.416C257.354 144.657 252.88 139.13 245.526 137.833Z" fill="url(#paint1_linear_1323_1890)"/>
<path d="M324.761 215.373L323.222 226.119C322.088 232.553 319.682 235.446 316.005 234.797C310.49 233.825 305.327 232.204 300.515 229.933C295.743 227.434 293.58 224.92 294.026 222.392C294.512 219.635 296.687 210.659 300.55 195.466C304.684 180.083 307.44 168.486 308.818 160.673L312.404 140.337C314.348 129.307 316.672 122.846 319.375 120.953C322.079 119.06 326.687 116.437 333.202 113.084C339.946 109.772 344.582 108.338 347.11 108.784C349.867 109.27 351.51 110.034 352.037 111.074C352.564 112.115 352.605 113.899 352.159 116.427C350.012 128.606 345.688 139.69 339.188 149.68C335.73 162.575 333.555 171.55 332.663 176.606C333.826 175.389 340.029 168.427 351.273 155.72C362.517 143.013 371.714 133.854 378.863 128.244C386.243 122.674 392.345 120.314 397.171 121.165C401.996 122.016 405.964 124.374 409.073 128.239C412.412 132.145 413.656 136.511 412.805 141.336C411.023 151.447 407.24 166.181 401.457 185.537C395.945 204.705 392.723 216.931 391.791 222.216C390.9 227.272 391.144 229.921 392.522 230.164C396.469 230.623 402.72 226.75 411.275 218.544C419.871 210.108 428.817 199.01 438.115 185.249C447.642 171.528 453.095 164.789 454.474 165.032C456.082 165.316 456.724 166.377 456.4 168.215C455.266 174.649 450.131 184.287 440.995 197.129C416.035 232.533 397.351 249.141 384.942 246.953C375.98 245.372 369.526 242.339 365.578 237.852C364.253 235.96 364.178 231.682 365.353 225.018C366.569 218.124 369.088 207.196 372.911 192.232C377.005 177.079 379.72 165.712 381.057 158.129C382.394 150.546 381.684 146.511 378.927 146.025C376.399 145.579 368.107 152.291 354.052 166.161C340.037 179.801 332.3 188.744 330.841 192.988C328.044 200.788 326.018 208.249 324.761 215.373Z" fill="url(#paint2_linear_1323_1890)"/>
<path d="M526.571 236.185C517.609 234.605 511.155 231.572 507.207 227.085C505.882 225.192 505.787 221.029 506.921 214.595C508.096 207.931 509.886 199.125 512.291 188.176C503.682 202.059 495.743 212.15 488.472 218.45C481.471 224.561 473.375 226.805 464.183 225.185C454.992 223.564 447.699 217.895 442.304 208.177C436.95 198.23 435.894 184.064 439.135 165.681C442.417 147.068 450.485 131.55 463.337 119.127C476.42 106.743 491.463 102.051 508.467 105.049C515.821 106.346 523.242 112.63 530.732 123.902C533.016 121.698 536.76 119.278 541.963 116.642C547.437 113.816 551.783 112.687 555 113.254C558.446 113.862 559.4 118.532 557.86 127.264C557.455 129.562 555.976 133.921 553.422 140.342C551.098 146.803 548.868 151.386 546.733 154.089C543.733 159.01 539.397 177.555 533.724 209.725C532.63 215.93 532.773 219.153 534.151 219.397C538.098 219.856 544.349 215.982 552.904 207.776C561.5 199.341 570.446 188.242 579.744 174.481C589.271 160.76 594.724 154.022 596.103 154.265C597.711 154.548 598.353 155.609 598.029 157.448C596.895 163.882 591.76 173.52 582.624 186.362C557.664 221.765 538.979 238.373 526.571 236.185ZM503.968 118.472C497.534 117.338 489.79 120.948 480.735 129.302C471.95 137.467 466.423 147.984 464.154 160.852C461.885 173.72 461.86 184.615 464.078 193.535C466.525 202.497 470.851 207.524 477.056 208.618C484.639 209.955 499.126 192.963 520.518 157.641C521.072 155.843 521.849 152.782 522.848 148.456C524.118 143.941 525.071 140.555 525.706 138.298C524.286 134.257 521.217 130.162 516.499 126.013C512.052 121.674 507.875 119.161 503.968 118.472Z" fill="url(#paint3_linear_1323_1890)"/>
<path d="M656.741 162.675C631.781 198.078 612.981 214.666 600.343 212.438C587.934 210.25 580.844 207.459 579.073 204.067C577.532 200.715 578.24 190.652 581.198 173.877C584.156 157.103 590.039 133.144 598.847 102C587.763 97.6763 582.504 91.8919 583.071 84.6469C583.719 80.9703 586.456 79.5574 591.282 80.4083C596.107 81.2591 600.196 82.9279 603.549 85.4145C608.534 69.2344 613.905 52.8852 619.661 36.3671C621.12 32.1227 624.032 28.3714 628.398 25.1133C632.763 21.8552 636.669 20.53 640.116 21.1378C643.103 21.6645 643.766 26.6385 642.105 36.0599C641.335 40.4258 636.181 60.2487 626.643 95.5285C633.05 95.4735 640.234 94.3709 648.195 92.2206C656.386 90.1109 661.171 89.1776 662.55 89.4207C666.686 90.15 668.531 91.7785 668.085 94.3062C667.91 96.6446 663.092 99.1121 653.63 101.709C644.21 104.075 634.261 105.401 623.786 105.687C615.113 138.75 609.257 163.898 606.218 181.132C604.598 190.324 605.166 195.163 607.923 195.649C612.1 196.148 618.466 192.295 627.021 184.089C635.576 175.884 644.502 164.9 653.799 151.139C663.367 137.188 668.841 130.335 670.219 130.578C671.828 130.861 672.47 131.922 672.146 133.761C671.011 140.195 665.876 149.833 656.741 162.675Z" fill="url(#paint4_linear_1323_1890)"/>
<path d="M679.985 184.749L678.446 195.495C677.311 201.929 674.906 204.822 671.229 204.174C665.714 203.201 660.551 201.58 655.738 199.31C650.967 196.81 648.804 194.296 649.249 191.769C649.735 189.011 651.91 180.036 655.774 164.843C659.908 149.46 662.664 137.862 664.041 130.05L667.566 110.058C677.939 51.2322 694.999 15.6202 718.746 3.22215C724.22 0.39642 729.484 -0.57075 734.54 0.320644C736.837 0.725823 738.69 3.65868 740.096 9.11921C741.503 14.5797 741.497 21.3313 740.079 29.3739C736.594 49.1357 730 67.0462 720.298 83.1053C710.595 99.1644 701.487 111.182 692.972 119.158C691.729 124.862 690.034 133.804 687.887 145.982C689.049 144.766 695.252 137.804 706.496 125.097C717.74 112.389 726.937 103.231 734.087 97.6202C741.466 92.0503 747.569 89.6908 752.394 90.5417C757.22 91.3926 761.187 93.7507 764.297 97.616C767.636 101.522 768.88 105.888 768.029 110.713C766.246 120.824 762.464 135.557 756.681 154.914C751.169 174.081 747.947 186.308 747.015 191.593C746.124 196.648 746.367 199.297 747.746 199.541C751.693 200 757.944 196.126 766.499 187.92C775.094 179.485 784.041 168.386 793.338 154.625C802.866 140.904 808.319 134.166 809.697 134.409C811.306 134.692 811.948 135.753 811.624 137.592C810.489 144.026 805.354 153.664 796.219 166.506C771.259 201.909 752.574 218.517 740.166 216.329C731.204 214.749 724.749 211.715 720.802 207.228C719.477 205.336 719.402 201.058 720.577 194.394C721.792 187.501 724.312 176.572 728.135 161.609C732.228 146.456 734.944 135.088 736.281 127.505C737.618 119.922 736.908 115.888 734.15 115.401C731.622 114.956 723.331 121.668 709.276 135.538C695.261 149.178 687.524 158.12 686.064 162.365C683.268 170.164 681.241 177.626 679.985 184.749ZM729.435 35.3159C731.137 25.6648 730.724 20.6164 728.196 20.1707C724.06 19.4414 717.79 31.4856 709.386 56.3033C704.928 69.4962 700.658 84.9733 696.579 102.735C715.12 76.8613 726.072 54.3884 729.435 35.3159Z" fill="url(#paint5_linear_1323_1890)"/>
<path d="M904.837 130.726C914.555 129.36 921.32 127.946 925.131 126.486C929.213 124.836 932.274 123.599 934.315 122.774L938.877 121.091C940.148 120.604 941.127 120.422 941.817 120.543C943.655 120.867 944.392 122.063 944.027 124.131C943.663 126.2 939.453 129.248 931.397 133.277C923.382 137.076 913.725 140.112 902.426 142.385C897.414 161.403 888.569 175.955 875.892 186.04C863.215 196.126 847.11 199.446 827.578 196.002C813.331 193.49 803.409 185.936 797.811 173.339C792.254 160.512 790.813 146.516 793.487 131.35C796.201 115.954 803.235 102.268 814.587 90.2903C826.169 78.3535 839.084 73.6411 853.331 76.1532C860.575 72.692 868.563 71.7312 877.295 73.2708C886.257 74.851 893.699 81.0203 899.621 91.7788C905.542 102.537 907.281 115.52 904.837 130.726ZM879.333 144.355L866.803 142.856C856.232 140.992 847.818 136.31 841.558 128.809C835.34 121.078 832.899 113.421 834.236 105.838C835.573 98.2554 837.992 91.9293 841.492 86.86C830.233 92.9306 822.578 107.455 818.526 130.434C816.581 141.464 817.015 152.439 819.828 163.36C822.682 174.052 829.049 180.269 838.93 182.011C848.811 183.753 857.238 180.974 864.212 173.674C871.226 166.145 876.266 156.371 879.333 144.355ZM868.051 83.3691C864.375 82.7208 861.198 83.9377 858.523 87.0199C855.887 89.8723 854.225 93.2516 853.536 97.1581C852.037 105.66 853.694 113.06 858.507 119.358C863.549 125.697 869.977 129.555 877.79 130.933L881.926 131.662C883.452 120.321 883.302 109.751 881.476 99.9521C879.879 90.1933 875.405 84.6656 868.051 83.3691Z" fill="url(#paint6_linear_1323_1890)"/>
<path d="M947.286 160.909L945.747 171.655C944.613 178.089 942.207 180.982 938.53 180.333C933.015 179.361 927.852 177.74 923.04 175.47C918.268 172.97 916.105 170.456 916.551 167.928C917.037 165.171 919.212 156.195 923.075 141.002C927.209 125.62 929.965 114.022 931.343 106.209L934.929 85.8729C936.873 74.843 939.197 68.3817 941.9 66.489C944.604 64.5963 949.212 61.9734 955.727 58.6204C962.471 55.3079 967.107 53.8745 969.635 54.3202C972.392 54.8064 974.035 55.5699 974.562 56.6106C975.089 57.6513 975.13 59.4355 974.684 61.9631C972.537 74.1419 968.213 85.2262 961.713 95.2159C958.255 108.111 956.08 117.087 955.188 122.142C956.351 120.925 962.554 113.963 973.798 101.256C985.042 88.5489 994.239 79.3901 1001.39 73.7797C1008.77 68.2098 1014.87 65.8503 1019.7 66.7012C1024.52 67.5521 1028.49 69.9102 1031.6 73.7755C1034.94 77.6814 1036.18 82.0471 1035.33 86.8726C1033.55 96.9833 1029.76 111.717 1023.98 131.074C1018.47 150.241 1015.25 162.467 1014.32 167.752C1013.43 172.808 1013.67 175.457 1015.05 175.7C1018.99 176.159 1025.25 172.286 1033.8 164.08C1042.4 155.644 1051.34 144.546 1060.64 130.785C1070.17 117.064 1075.62 110.325 1077 110.568C1078.61 110.852 1079.25 111.913 1078.93 113.751C1077.79 120.185 1072.66 129.823 1063.52 142.665C1038.56 178.069 1019.88 194.677 1007.47 192.489C998.505 190.909 992.051 187.875 988.103 183.388C986.778 181.496 986.703 177.218 987.878 170.554C989.094 163.66 991.613 152.732 995.436 137.768C999.53 122.616 1002.24 111.248 1003.58 103.665C1004.92 96.0817 1004.21 92.0471 1001.45 91.5608C998.924 91.1151 990.632 97.8273 976.577 111.697C962.562 125.338 954.825 134.28 953.366 138.524C950.569 146.324 948.543 153.785 947.286 160.909Z" fill="url(#paint7_linear_1323_1890)"/>
<path d="M352.147 326.641L355.451 317.983C356.719 305.412 349.426 297.729 333.571 294.933C324.379 293.313 315.749 295.227 307.68 300.675C299.882 305.934 295.334 312.24 294.038 319.593C292.782 326.717 294.655 333.563 299.657 340.131C304.929 346.51 311.432 352.632 319.164 358.497C327.167 364.173 334.973 370.289 342.584 376.843C350.465 383.208 356.704 390.824 361.301 399.69C366.128 408.597 367.67 417.991 365.928 427.872C362.322 448.323 351.443 462.99 333.291 471.873C315.14 480.756 296.757 483.557 278.144 480.275C259.532 476.993 244.608 470.926 233.375 462.074C222.182 452.992 217.801 441.558 220.232 427.771C221.528 420.417 225.231 414.199 231.34 409.116C237.449 404.033 245.214 402.322 254.635 403.983C258.312 404.631 261.461 406.253 264.084 408.848C266.707 411.443 268.059 414.524 268.14 418.093C267.532 421.539 265.16 422.898 261.024 422.169C253.211 420.791 248.718 423.434 247.543 430.098C246.435 437.722 248.781 445.244 254.581 452.663C260.611 460.124 269.944 464.968 282.583 467.197C295.451 469.466 307.136 467.024 317.637 459.872C328.368 452.761 334.828 443.001 337.016 430.593C338.475 422.32 336.689 414.305 331.66 406.547C326.631 398.79 320.155 391.843 312.234 385.707C304.353 379.342 296.357 372.957 288.246 366.551C280.365 360.186 273.93 353.009 268.941 345.022C263.952 337.034 262.228 328.674 263.767 319.942C266.482 304.546 275.199 293.407 289.917 286.525C304.866 279.684 320.727 277.742 337.502 280.7C348.762 282.685 358.582 286.786 366.963 293.003C375.344 299.219 378.819 307.058 377.388 316.52C376.415 322.035 374.226 326.388 370.821 329.578C367.415 332.769 363.299 333.938 358.474 333.087C353.878 332.277 351.769 330.128 352.147 326.641Z" fill="url(#paint8_linear_1323_1890)"/>
<path d="M458.143 376.71L464 359.618C464.445 357.09 464.046 354.65 462.802 352.298C461.559 349.947 459.673 348.548 457.145 348.102C448.643 346.603 440.155 351.741 431.682 363.515C423.249 375.059 418 386.691 415.933 398.41C413.867 410.129 414.598 420.091 418.127 428.295C421.696 436.27 426.928 440.865 433.822 442.08C440.945 443.336 447.548 442.842 453.63 440.597C459.712 438.353 465.578 434.648 471.227 429.484C483.107 418.547 493.912 405.644 503.642 390.775C506.209 386.963 508.115 384.218 509.358 382.542C510.831 380.907 512.142 380.19 513.291 380.393C514.67 380.636 515.197 381.676 514.873 383.515C513.536 391.098 509.293 399.708 502.144 409.347C494.995 418.985 489.076 426.352 484.386 431.449C479.967 436.356 474.453 441.426 467.844 446.657C454.085 457.5 438.589 461.401 421.355 458.363C408.257 456.053 399.072 449.695 393.799 439.288C388.796 428.691 387.227 418.108 389.09 407.538C393.709 381.342 402.844 362.458 416.494 350.886C430.415 339.124 446.107 334.783 463.571 337.863C470.924 339.159 476.324 342.125 479.772 346.761C483.489 351.208 484.923 355.844 484.072 360.669C482.492 369.631 479.708 376.011 475.721 379.81C471.735 383.609 467.443 385.103 462.847 384.292C458.941 383.604 457.373 381.076 458.143 376.71Z" fill="url(#paint9_linear_1323_1890)"/>
<path d="M610.15 384.375C619.868 383.009 626.633 381.595 630.445 380.135C634.526 378.485 637.588 377.248 639.629 376.423L644.19 374.74C645.461 374.253 646.441 374.07 647.13 374.192C648.968 374.516 649.705 375.712 649.341 377.78C648.976 379.848 644.766 382.897 636.711 386.926C628.696 390.725 619.038 393.761 607.739 396.034C602.727 415.052 593.882 429.604 581.205 439.689C568.528 449.774 552.423 453.095 532.891 449.651C518.644 447.139 508.722 439.584 503.124 426.988C497.567 414.161 496.126 400.165 498.8 384.999C501.515 369.603 508.548 355.916 519.901 343.939C531.483 332.002 544.397 327.29 558.644 329.802C565.888 326.341 573.877 325.38 582.609 326.92C591.57 328.5 599.012 334.669 604.934 345.428C610.856 356.186 612.594 369.169 610.15 384.375ZM584.646 398.003L572.116 396.505C561.546 394.641 553.131 389.959 546.872 382.458C540.653 374.727 538.212 367.07 539.549 359.487C540.886 351.904 543.305 345.578 546.805 340.509C535.546 346.579 527.891 361.104 523.839 384.083C521.895 395.113 522.329 406.088 525.142 417.009C527.995 427.701 534.362 433.917 544.243 435.66C554.124 437.402 562.551 434.623 569.525 427.323C576.539 419.793 581.579 410.02 584.646 398.003ZM573.365 337.018C569.688 336.37 566.512 337.587 563.836 340.669C561.201 343.521 559.538 346.901 558.85 350.807C557.351 359.309 559.007 366.709 563.82 373.007C568.863 379.346 575.29 383.204 583.103 384.582L587.239 385.311C588.765 373.97 588.615 363.4 586.789 353.601C585.193 343.842 580.718 338.314 573.365 337.018Z" fill="url(#paint10_linear_1323_1890)"/>
<path d="M709.781 385.902C684.821 421.305 666.021 437.893 653.383 435.664C640.974 433.476 633.884 430.686 632.113 427.294C630.572 423.942 631.28 413.879 634.238 397.104C637.196 380.329 643.079 356.37 651.887 325.227C640.803 320.903 635.544 315.119 636.111 307.874C636.759 304.197 639.496 302.784 644.322 303.635C649.147 304.486 653.236 306.155 656.589 308.641C661.574 292.461 666.945 276.112 672.701 259.594C674.16 255.349 677.072 251.598 681.438 248.34C685.803 245.082 689.709 243.757 693.156 244.364C696.143 244.891 696.806 249.865 695.145 259.287C694.375 263.653 689.221 283.475 679.684 318.755C686.09 318.7 693.274 317.598 701.235 315.447C709.426 313.338 714.211 312.404 715.59 312.647C719.726 313.377 721.571 315.005 721.125 317.533C720.95 319.871 716.132 322.339 706.67 324.935C697.25 327.302 687.302 328.628 676.826 328.913C668.153 361.976 662.297 387.125 659.258 404.359C657.638 413.55 658.206 418.389 660.963 418.876C665.14 419.375 671.506 415.522 680.061 407.316C688.616 399.11 697.542 388.127 706.839 374.366C716.407 360.415 721.881 353.561 723.259 353.805C724.868 354.088 725.51 355.149 725.186 356.987C724.051 363.421 718.916 373.06 709.781 385.902Z" fill="url(#paint11_linear_1323_1890)"/>
<path d="M788.483 379.016C763.522 414.42 744.723 431.007 732.085 428.779C719.676 426.591 712.586 423.801 710.815 420.408C709.274 417.056 709.982 406.993 712.94 390.218C715.898 373.444 721.781 349.485 730.589 318.341C719.505 314.017 714.246 308.233 714.813 300.988C715.461 297.311 718.198 295.899 723.024 296.749C727.849 297.6 731.938 299.269 735.291 301.756C740.276 285.576 745.647 269.226 751.403 252.708C752.862 248.464 755.774 244.713 760.14 241.454C764.505 238.196 768.411 236.871 771.858 237.479C774.845 238.006 775.508 242.98 773.847 252.401C773.077 256.767 767.923 276.59 758.385 311.87C764.792 311.815 771.976 310.712 779.937 308.562C788.128 306.452 792.913 305.519 794.292 305.762C798.428 306.491 800.273 308.12 799.827 310.647C799.652 312.986 794.833 315.453 785.372 318.05C775.951 320.416 766.003 321.742 755.528 322.028C746.855 355.091 740.999 380.239 737.96 397.473C736.339 406.665 736.908 411.504 739.665 411.99C743.842 412.49 750.208 408.636 758.763 400.431C767.318 392.225 776.244 381.241 785.541 367.48C795.109 353.53 800.582 346.676 801.961 346.919C803.57 347.203 804.212 348.264 803.888 350.102C802.753 356.536 797.618 366.174 788.483 379.016Z" fill="url(#paint12_linear_1323_1890)"/>
</g>
</g>
<defs>
<filter id="filter0_dii_1323_1890" x="-208.081" y="-104.041" width="1495.17" height="897.765" filterUnits="userSpaceOnUse" color-interpolation-filters="sRGB">
<feFlood flood-opacity="0" result="BackgroundImageFix"/>
<feColorMatrix in="SourceAlpha" type="matrix" values="0 0 0 0 0 0 0 0 0 0 0 0 0 0 0 0 0 0 127 0" result="hardAlpha"/>
<feOffset dy="104.041"/>
<feGaussianBlur stdDeviation="104.041"/>
<feColorMatrix type="matrix" values="0 0 0 0 0.2 0 0 0 0 0.2 0 0 0 0 0.2 0 0 0 0.25 0"/>
<feBlend mode="normal" in2="BackgroundImageFix" result="effect1_dropShadow_1323_1890"/>
<feBlend mode="normal" in="SourceGraphic" in2="effect1_dropShadow_1323_1890" result="shape"/>
<feColorMatrix in="SourceAlpha" type="matrix" values="0 0 0 0 0 0 0 0 0 0 0 0 0 0 0 0 0 0 127 0" result="hardAlpha"/>
<feOffset dy="34.6802"/>
<feGaussianBlur stdDeviation="17.3401"/>
<feComposite in2="hardAlpha" operator="arithmetic" k2="-1" k3="1"/>
<feColorMatrix type="matrix" values="0 0 0 0 1 0 0 0 0 1 0 0 0 0 1 0 0 0 1 0"/>
<feBlend mode="normal" in2="shape" result="effect2_innerShadow_1323_1890"/>
<feColorMatrix in="SourceAlpha" type="matrix" values="0 0 0 0 0 0 0 0 0 0 0 0 0 0 0 0 0 0 127 0" result="hardAlpha"/>
<feOffset dy="-34.6802"/>
<feGaussianBlur stdDeviation="17.3401"/>
<feComposite in2="hardAlpha" operator="arithmetic" k2="-1" k3="1"/>
<feColorMatrix type="matrix" values="0 0 0 0 0.8 0 0 0 0 0.8 0 0 0 0 0.8 0 0 0 1 0"/>
<feBlend mode="normal" in2="effect2_innerShadow_1323_1890" result="effect3_innerShadow_1323_1890"/>
</filter>
<linearGradient id="paint0_linear_1323_1890" x1="539.503" y1="0" x2="539.503" y2="481.603" gradientUnits="userSpaceOnUse">
<stop stop-color="white"/>
<stop offset="1" stop-color="#D6D6D6"/>
</linearGradient>
<linearGradient id="paint1_linear_1323_1890" x1="539.503" y1="0" x2="539.503" y2="481.603" gradientUnits="userSpaceOnUse">
<stop stop-color="white"/>
<stop offset="1" stop-color="#D6D6D6"/>
</linearGradient>
<linearGradient id="paint2_linear_1323_1890" x1="539.503" y1="0" x2="539.503" y2="481.603" gradientUnits="userSpaceOnUse">
<stop stop-color="white"/>
<stop offset="1" stop-color="#D6D6D6"/>
</linearGradient>
<linearGradient id="paint3_linear_1323_1890" x1="539.503" y1="0" x2="539.503" y2="481.603" gradientUnits="userSpaceOnUse">
<stop stop-color="white"/>
<stop offset="1" stop-color="#D6D6D6"/>
</linearGradient>
<linearGradient id="paint4_linear_1323_1890" x1="539.503" y1="0" x2="539.503" y2="481.603" gradientUnits="userSpaceOnUse">
<stop stop-color="white"/>
<stop offset="1" stop-color="#D6D6D6"/>
</linearGradient>
<linearGradient id="paint5_linear_1323_1890" x1="539.503" y1="0" x2="539.503" y2="481.603" gradientUnits="userSpaceOnUse">
<stop stop-color="white"/>
<stop offset="1" stop-color="#D6D6D6"/>
</linearGradient>
<linearGradient id="paint6_linear_1323_1890" x1="539.503" y1="0" x2="539.503" y2="481.603" gradientUnits="userSpaceOnUse">
<stop stop-color="white"/>
<stop offset="1" stop-color="#D6D6D6"/>
</linearGradient>
<linearGradient id="paint7_linear_1323_1890" x1="539.503" y1="0" x2="539.503" y2="481.603" gradientUnits="userSpaceOnUse">
<stop stop-color="white"/>
<stop offset="1" stop-color="#D6D6D6"/>
</linearGradient>
<linearGradient id="paint8_linear_1323_1890" x1="539.503" y1="0" x2="539.503" y2="481.603" gradientUnits="userSpaceOnUse">
<stop stop-color="white"/>
<stop offset="1" stop-color="#D6D6D6"/>
</linearGradient>
<linearGradient id="paint9_linear_1323_1890" x1="539.503" y1="0" x2="539.503" y2="481.603" gradientUnits="userSpaceOnUse">
<stop stop-color="white"/>
<stop offset="1" stop-color="#D6D6D6"/>
</linearGradient>
<linearGradient id="paint10_linear_1323_1890" x1="539.503" y1="0" x2="539.503" y2="481.603" gradientUnits="userSpaceOnUse">
<stop stop-color="white"/>
<stop offset="1" stop-color="#D6D6D6"/>
</linearGradient>
<linearGradient id="paint11_linear_1323_1890" x1="539.503" y1="0" x2="539.503" y2="481.603" gradientUnits="userSpaceOnUse">
<stop stop-color="white"/>
<stop offset="1" stop-color="#D6D6D6"/>
</linearGradient>
<linearGradient id="paint12_linear_1323_1890" x1="539.503" y1="0" x2="539.503" y2="481.603" gradientUnits="userSpaceOnUse">
<stop stop-color="white"/>
<stop offset="1" stop-color="#D6D6D6"/>
</linearGradient>
</defs>
</svg>
