<?xml version="1.0" standalone="no"?>
<!DOCTYPE svg PUBLIC "-//W3C//DTD SVG 20010904//EN"
 "http://www.w3.org/TR/2001/REC-SVG-20010904/DTD/svg10.dtd">
<svg version="1.0" xmlns="http://www.w3.org/2000/svg"
 width="200.000000pt" height="200.000000pt" viewBox="0 0 200.000000 200.000000"
 preserveAspectRatio="xMidYMid meet">
<metadata>
Created by potrace 1.14, written by Peter Selinger 2001-2017
</metadata>
<g transform="translate(0.000000,200.000000) scale(0.100000,-0.100000)"
fill="#000000" stroke="none">
<path d="M1085 1751 c-117 -35 -248 -109 -380 -215 -77 -61 -245 -233 -305
-311 -112 -144 -185 -324 -173 -422 14 -114 150 -261 338 -366 278 -154 601
-234 736 -181 171 67 399 326 469 534 18 53 21 79 17 142 -14 191 -173 523
-329 688 -130 137 -231 173 -373 131z"/>
</g>
</svg>
