<svg width="100" height="100" viewBox="0 0 100 100" fill="none" xmlns="http://www.w3.org/2000/svg">
<path d="M57.0886 79.367C57.7215 80.7594 58.9873 81.5189 60.3797 81.5189C60.8861 81.5189 61.3924 81.3924 61.8987 81.1392C63.7975 80.2531 64.5569 78.1012 63.6709 76.2025C63.6709 76.2025 56.7088 60.2531 55.443 54.4303C54.9367 52.405 54.6835 46.962 54.5569 44.4303C54.5569 43.5443 55.0633 42.7848 55.8228 42.5316L71.3924 37.8481C73.2911 37.3417 74.4304 35.1898 73.924 33.2911C73.4177 31.3924 71.2658 30.2531 69.3671 30.7595C69.3671 30.7595 54.9367 35.443 49.7468 35.443C44.6835 35.443 30.3797 30.886 30.3797 30.886C28.481 30.3797 26.3291 31.2658 25.6962 33.1645C25.0633 35.1898 26.2025 37.3417 28.2278 37.8481L43.7975 42.5316C44.5569 42.7848 45.1899 43.5443 45.0633 44.4303C44.9367 46.962 44.6835 52.405 44.1772 54.4303C42.9114 60.2531 35.9494 76.2025 35.9494 76.2025C35.0633 78.1012 35.9494 80.2531 37.7215 81.1392C38.2278 81.3924 38.7342 81.5189 39.2405 81.5189C40.6329 81.5189 42.0253 80.7594 42.5316 79.367L50 64.1772L57.0886 79.367Z" fill="#333333"/>
<path d="M50 31.7722C53.9149 31.7722 57.0886 28.5985 57.0886 24.6836C57.0886 20.7686 53.9149 17.595 50 17.595C46.0851 17.595 42.9114 20.7686 42.9114 24.6836C42.9114 28.5985 46.0851 31.7722 50 31.7722Z" fill="#333333"/>
<path d="M100 50C100 22.4051 77.5949 0 50 0C22.4051 0 0 22.4051 0 50C0 77.5949 22.4051 100 50 100C77.5949 100 100 77.5949 100 50ZM8.35443 50C8.35443 26.962 27.0886 8.35443 50 8.35443C72.9114 8.35443 91.6456 26.962 91.6456 50C91.6456 73.038 73.038 91.6456 50 91.6456C26.962 91.6456 8.35443 73.038 8.35443 50Z" fill="#333333"/>
</svg>
