<svg width="100" height="100" viewBox="0 0 100 100" fill="none" xmlns="http://www.w3.org/2000/svg">
<path d="M28.381 46.0985V47.9401L22.906 49.7651C22.435 49.922 22.0254 50.2231 21.7352 50.6258C21.445 51.0284 21.2888 51.5122 21.289 52.0086V56.7367C21.289 57.3636 21.538 57.9649 21.9814 58.4083C22.4247 58.8516 23.026 59.1007 23.653 59.1007C24.28 59.1007 24.8813 58.8516 25.3246 58.4083C25.7679 57.9649 26.017 57.3636 26.017 56.7367V53.7131L28.9437 52.7367C29.5818 54.5896 30.781 56.1978 32.3747 57.3382C33.9683 58.4786 35.8775 59.0946 37.8372 59.1007H42.5652C44.5249 59.0946 46.434 58.4786 48.0277 57.3382C49.6214 56.1978 50.8205 54.5896 51.4587 52.7367L54.3854 53.7131V56.7367C54.3854 57.3636 54.6344 57.9649 55.0778 58.4083C55.5211 58.8516 56.1224 59.1007 56.7494 59.1007C57.3764 59.1007 57.9777 58.8516 58.421 58.4083C58.8644 57.9649 59.1134 57.3636 59.1134 56.7367V52.0086C59.1135 51.5122 58.9574 51.0284 58.6672 50.6258C58.377 50.2231 57.9674 49.922 57.4964 49.7651L52.0213 47.9401V46.0985H59.1134C59.7404 46.0985 60.3417 45.8495 60.785 45.4061C61.2284 44.9628 61.4775 44.3615 61.4775 43.7345C61.4775 43.1075 61.2284 42.5062 60.785 42.0629C60.3417 41.6195 59.7404 41.3705 59.1134 41.3705H52.0213V39.5289L57.4964 37.7039C57.9674 37.547 58.377 37.2459 58.6672 36.8432C58.9574 36.4406 59.1135 35.9568 59.1134 35.4604V30.7323C59.1134 30.1054 58.8644 29.5041 58.421 29.0607C57.9777 28.6174 57.3764 28.3683 56.7494 28.3683C56.1224 28.3683 55.5211 28.6174 55.0778 29.0607C54.6344 29.5041 54.3854 30.1054 54.3854 30.7323V33.7559L51.4587 34.7323C50.7173 32.6059 49.2399 30.8149 47.2933 29.6827V28.2005C47.2882 27.1916 47.0606 26.1963 46.6266 25.2856L51.3287 20.5836C51.7593 20.1377 51.9976 19.5405 51.9922 18.9207C51.9868 18.3009 51.7382 17.7079 51.2999 17.2696C50.8616 16.8313 50.2686 16.5827 49.6488 16.5773C49.029 16.5719 48.4318 16.8102 47.9859 17.2408L43.2744 21.9429C42.3659 21.5099 41.3731 21.2823 40.3667 21.2762H40.0357C39.0261 21.2809 38.0299 21.5086 37.1185 21.9429L32.4164 17.2408C31.9706 16.8102 31.3734 16.5719 30.7536 16.5773C30.1337 16.5827 29.5408 16.8313 29.1025 17.2696C28.6642 17.7079 28.4156 18.3009 28.4102 18.9207C28.4048 19.5405 28.6431 20.1377 29.0737 20.5836L33.7758 25.2951C33.3431 26.2029 33.1155 27.1948 33.1091 28.2005V29.6827C31.1625 30.8149 29.6851 32.6059 28.9437 34.7323L26.017 33.7559V30.7323C26.017 30.1054 25.7679 29.5041 25.3246 29.0607C24.8813 28.6174 24.28 28.3683 23.653 28.3683C23.026 28.3683 22.4247 28.6174 21.9814 29.0607C21.538 29.5041 21.289 30.1054 21.289 30.7323V35.4604C21.2888 35.9568 21.445 36.4406 21.7352 36.8432C22.0254 37.2459 22.435 37.547 22.906 37.7039L28.381 39.5289V41.3705H21.289C20.662 41.3705 20.0607 41.6195 19.6173 42.0629C19.174 42.5062 18.9249 43.1075 18.9249 43.7345C18.9249 44.3615 19.174 44.9628 19.6173 45.4061C20.0607 45.8495 20.662 46.0985 21.289 46.0985H28.381ZM37.8372 28.2005C37.8384 27.618 38.0705 27.0597 38.4826 26.6481C38.8947 26.2364 39.4532 26.0049 40.0357 26.0043H40.3667C40.9492 26.0049 41.5077 26.2364 41.9198 26.6481C42.3319 27.0597 42.564 27.618 42.5652 28.2005V28.3683H37.8372V28.2005ZM33.1091 37.8244C33.1091 36.5705 33.6072 35.3679 34.4939 34.4812C35.3806 33.5945 36.5832 33.0964 37.8372 33.0964H42.5652C43.8192 33.0964 45.0218 33.5945 45.9085 34.4812C46.7951 35.3679 47.2933 36.5705 47.2933 37.8244V49.6446C47.2933 50.8985 46.7951 52.1011 45.9085 52.9878C45.0218 53.8745 43.8192 54.3726 42.5652 54.3726V44.9165C42.5652 44.2895 42.3162 43.6882 41.8728 43.2449C41.4295 42.8015 40.8282 42.5525 40.2012 42.5525C39.5742 42.5525 38.9729 42.8015 38.5296 43.2449C38.0862 43.6882 37.8372 44.2895 37.8372 44.9165V54.3726C36.5832 54.3726 35.3806 53.8745 34.4939 52.9878C33.6072 52.1011 33.1091 50.8985 33.1091 49.6446V37.8244Z" fill="#333333"/>
<path d="M40.2011 72.1029C46.5132 72.1029 52.6835 70.2312 57.9318 66.7244C63.1801 63.2176 67.2707 58.2332 69.6862 52.4016C72.1017 46.57 72.7337 40.1531 71.5023 33.9623C70.2709 27.7715 67.2313 22.0849 62.768 17.6216C58.3047 13.1583 52.6181 10.1188 46.4273 8.88735C40.2365 7.65593 33.8196 8.28794 27.988 10.7035C22.1564 13.119 17.1721 17.2095 13.6653 22.4578C10.1585 27.7061 8.28674 33.8764 8.28674 40.1885C8.29613 48.6499 11.6615 56.762 17.6446 62.745C23.6277 68.7281 31.7398 72.0935 40.2011 72.1029ZM40.2011 13.0022C45.5781 13.0022 50.8343 14.5966 55.3051 17.5839C59.7758 20.5712 63.2604 24.8171 65.318 29.7848C67.3757 34.7524 67.9141 40.2187 66.8651 45.4923C65.8161 50.7659 63.2269 55.6101 59.4248 59.4122C55.6227 63.2142 50.7786 65.8035 45.5049 66.8525C40.2313 67.9015 34.765 67.3631 29.7974 65.3054C24.8297 63.2477 20.5838 59.7632 17.5965 55.2924C14.6093 50.8217 13.0148 45.5655 13.0148 40.1885C13.0229 32.9807 15.8898 26.0705 20.9865 20.9739C26.0831 15.8772 32.9934 13.0103 40.2011 13.0022Z" fill="#333333"/>
<path d="M40.2012 80.377C44.1644 80.3759 48.1056 79.7872 51.8961 78.63L55.2435 81.9774C57.0166 83.7487 59.4204 84.7437 61.9266 84.7437C64.4329 84.7437 66.8367 83.7487 68.6098 81.9774L83.645 97.0127C84.5115 97.9371 85.5551 98.6779 86.7135 99.1912C87.872 99.7044 89.1218 99.9796 90.3887 100C91.6556 100.021 92.9138 99.7872 94.0884 99.3122C95.2631 98.8373 96.3304 98.1311 97.2268 97.2356C98.1232 96.3401 98.8306 95.2736 99.3068 94.0994C99.783 92.9252 100.018 91.6673 99.9989 90.4004C99.9794 89.1335 99.7056 87.8834 99.1935 86.7244C98.6815 85.5654 97.9418 84.5211 97.0183 83.6535L81.9831 68.6041C83.7544 66.831 84.7493 64.4273 84.7493 61.921C84.7493 59.4148 83.7544 57.011 81.9831 55.2379L78.6356 51.8904C81.0976 43.8014 80.9456 35.1419 78.2012 27.1443C75.4567 19.1466 70.2597 12.2183 63.3497 7.34535C56.4397 2.47236 48.1688 -0.0970362 39.714 0.00280317C31.2591 0.102643 23.0512 2.86663 16.2582 7.90143C9.46517 12.9362 4.43321 19.9853 1.8784 28.0455C-0.676408 36.1057 -0.623904 44.7664 2.02844 52.7951C4.68079 60.8237 9.79784 67.8113 16.6514 72.7633C23.5049 77.7154 31.7458 80.3797 40.2012 80.377ZM93.6897 86.9963C94.1321 87.4333 94.4831 87.9539 94.7222 88.5279C94.9613 89.1019 95.0838 89.7178 95.0825 90.3396C95.0811 90.9614 94.9561 91.5768 94.7145 92.1498C94.473 92.7228 94.1198 93.2419 93.6756 93.677C92.7814 94.5446 91.5846 95.0298 90.3387 95.0298C89.0929 95.0298 87.896 94.5446 87.0019 93.677L71.9596 78.6276L78.6403 71.9469L93.6897 86.9963ZM78.6474 58.5736C79.5324 59.46 80.0294 60.6614 80.0294 61.9139C80.0294 63.1665 79.5324 64.3679 78.6474 65.2543L66.9478 76.9539L65.2717 78.63C64.3853 79.5149 63.1839 80.0119 61.9314 80.0119C60.6788 80.0119 59.4774 79.5149 58.591 78.63L56.7352 76.7742C65.6288 72.7339 72.7561 65.6066 76.7964 56.7131L78.6474 58.5736ZM40.2012 4.72806C47.2146 4.72806 54.0705 6.80778 59.902 10.7042C65.7334 14.6007 70.2785 20.1388 72.9624 26.6184C75.6463 33.0979 76.3485 40.2278 74.9803 47.1065C73.612 53.9851 70.2348 60.3036 65.2755 65.2628C60.3163 70.222 53.9979 73.5993 47.1192 74.9676C40.2406 76.3358 33.1106 75.6336 26.6311 72.9497C20.1515 70.2658 14.6134 65.7207 10.7169 59.8893C6.82049 54.0578 4.74078 47.2019 4.74078 40.1885C4.75141 30.7871 8.49083 21.7737 15.1386 15.1259C21.7865 8.47811 30.7998 4.7387 40.2012 4.72806Z" fill="#333333"/>
</svg>
