<svg width="100" height="100" viewBox="0 0 100 100" fill="none" xmlns="http://www.w3.org/2000/svg">
<path d="M83.3333 33.2479C79.4912 33.2471 75.7667 34.5739 72.7903 37.0036C69.8139 39.4333 67.7684 42.8167 67 46.5813H36.6667C32.7562 46.5797 28.9709 45.2033 25.9728 42.6927C22.9747 40.1821 20.9549 36.6973 20.2667 32.8479C23.9708 32.0285 27.2845 29.9699 29.6603 27.0122C32.0361 24.0546 33.3318 20.3749 33.3333 16.5813C32.4167 -5.53542 0.916667 -5.51875 3.47428e-07 16.5813C-0.000783835 20.4234 1.32595 24.1479 3.75565 27.1243C6.18535 30.1006 9.56878 32.1461 13.3333 32.9146V66.9146C9.56878 67.683 6.18535 69.7285 3.75565 72.7049C1.32595 75.6813 -0.000783835 79.4057 3.47428e-07 83.2479C0.916667 105.365 32.4167 105.348 33.3333 83.2479C33.3341 79.4057 32.0074 75.6813 29.5777 72.7049C27.148 69.7285 23.7645 67.683 20 66.9146V46.2313C22.1714 48.451 24.764 50.215 27.626 51.4198C30.4879 52.6247 33.5615 53.2462 36.6667 53.2479H67C71.4833 72.6813 99.4333 70.0313 100 49.9146C100 45.4943 98.2441 41.2551 95.1184 38.1295C91.9928 35.0039 87.7536 33.2479 83.3333 33.2479ZM6.66667 16.5813C7.08333 3.36458 26.25 3.36458 26.6667 16.5813C26.25 29.7979 7.08333 29.7979 6.66667 16.5813ZM26.6667 83.2479C26.25 96.4646 7.08333 96.4646 6.66667 83.2479C7.08333 70.0312 26.25 70.0312 26.6667 83.2479ZM83.3333 59.9146C70.1167 59.4979 70.1167 40.3313 83.3333 39.9146C96.55 40.3313 96.55 59.4979 83.3333 59.9146Z" fill="#333333"/>
</svg>
