<svg width="100" height="100" viewBox="0 0 100 100" fill="none" xmlns="http://www.w3.org/2000/svg">
<path d="M100 18.9655C100 13.9355 98.0019 9.11159 94.4451 5.55487C90.8884 1.99815 86.0644 0 81.0345 0H18.9655C13.9355 0 9.11159 1.99815 5.55487 5.55487C1.99815 9.11159 0 13.9355 0 18.9655V81.0345C0 86.0644 1.99815 90.8884 5.55487 94.4451C9.11159 98.0019 13.9355 100 18.9655 100H81.0345C86.0644 100 90.8884 98.0019 94.4451 94.4451C98.0019 90.8884 100 86.0644 100 81.0345V18.9655ZM10.3448 18.9655C10.3448 16.6792 11.2531 14.4865 12.8698 12.8698C14.4865 11.2531 16.6792 10.3448 18.9655 10.3448H55.1724V44.8276H10.3448V18.9655ZM34.4828 89.6552H18.9655C16.6792 89.6552 14.4865 88.7469 12.8698 87.1302C11.2531 85.5135 10.3448 83.3208 10.3448 81.0345V55.1724H34.4828V89.6552ZM89.6552 81.0345C89.6552 83.3208 88.7469 85.5135 87.1302 87.1302C85.5135 88.7469 83.3208 89.6552 81.0345 89.6552H44.8276V55.1724H89.6552V81.0345ZM89.6552 44.8276H65.5172V10.3448H81.0345C83.3208 10.3448 85.5135 11.2531 87.1302 12.8698C88.7469 14.4865 89.6552 16.6792 89.6552 18.9655V44.8276Z" fill="#333333"/>
</svg>
