<svg width="220" height="74" viewBox="0 0 220 74" fill="none" xmlns="http://www.w3.org/2000/svg">
<path d="M2.8 39.45C4.26667 43.8167 7.1 46 11.3 46C14.1333 46 16.1 45.2 17.2 43.6C18.3333 41.9667 18.9 39.7333 18.9 36.9L18.9 12L20.4 12L20.4 36.9C20.4 43.9667 17.3667 47.5 11.3 47.5C8.43333 47.5 6.21667 46.7833 4.65 45.35C3.11667 43.9167 1.9 41.95 1 39.45L2.8 39.45ZM44.5453 19.55C43.412 19.1833 42.012 19 40.3453 19C38.6786 19 37.2786 19.1833 36.1453 19.55C35.012 19.8833 33.962 20.5333 32.9953 21.5C32.062 22.4333 31.362 23.8167 30.8953 25.65C30.4286 27.45 30.1953 29.7333 30.1953 32.5C30.1953 35.2667 30.4286 37.5667 30.8953 39.4C31.362 41.2 32.062 42.5833 32.9953 43.55C33.962 44.4833 35.012 45.1333 36.1453 45.5C37.2786 45.8333 38.6786 46 40.3453 46C42.012 46 43.412 45.8333 44.5453 45.5C45.6786 45.1333 46.712 44.4833 47.6453 43.55C48.612 42.5833 49.3286 41.2 49.7953 39.4C50.262 37.5667 50.4953 35.2667 50.4953 32.5C50.4953 29.7333 50.262 27.45 49.7953 25.65C49.3286 23.8167 48.612 22.4333 47.6453 21.5C46.712 20.5333 45.6786 19.8833 44.5453 19.55ZM49.2953 43.95C47.4953 46.3167 44.512 47.5 40.3453 47.5C36.1786 47.5 33.1953 46.3167 31.3953 43.95C29.5953 41.5833 28.6953 37.7667 28.6953 32.5C28.6953 27.2333 29.5953 23.4167 31.3953 21.05C33.1953 18.6833 36.1786 17.5 40.3453 17.5C44.512 17.5 47.4953 18.6833 49.2953 21.05C51.0953 23.4167 51.9953 27.2333 51.9953 32.5C51.9953 37.7667 51.0953 41.5833 49.2953 43.95ZM60.2676 47L60.2676 18L61.7676 18L78.0676 44.25L78.0676 18L79.5676 18L79.5676 47L78.0676 47L61.7676 20.7L61.7676 47L60.2676 47Z" fill="url(#paint0_linear_161_525)"/>
<path d="M88.9 20.65C88.9 17.4167 89.7167 15.0833 91.35 13.65C92.9833 12.2167 95.6333 11.5 99.3 11.5C101.867 11.5 103.933 12.1667 105.5 13.5C107.067 14.8333 108.2 16.8667 108.9 19.6L104.25 23.1L101.8 23.1L107.2 19.05C106.5 16.8167 105.483 15.25 104.15 14.35C102.85 13.45 101.233 13 99.3 13C97.9667 13 96.8333 13.0833 95.9 13.25C95 13.4167 94.0833 13.75 93.15 14.25C92.25 14.7167 91.5667 15.4833 91.1 16.55C90.6333 17.6167 90.4 18.9833 90.4 20.65C90.4 22.1167 91.0667 23.4167 92.4 24.55C93.7667 25.6833 95.4167 26.65 97.35 27.45C99.2833 28.25 101.217 29.0667 103.15 29.9C105.117 30.7333 106.767 31.8 108.1 33.1C109.467 34.4 110.15 35.9 110.15 37.6C110.15 40.9333 109.317 43.4167 107.65 45.05C106.017 46.6833 103.2 47.5 99.2 47.5C95.9333 47.5 93.3667 46.85 91.5 45.55C89.6333 44.2167 88.35 42.1667 87.65 39.4L89.05 38.8C89.7167 41.5 90.85 43.3833 92.45 44.45C94.0833 45.4833 96.3333 46 99.2 46C102.4 46 104.767 45.3833 106.3 44.15C107.867 42.9167 108.65 40.7333 108.65 37.6C108.65 36.1333 107.967 34.8333 106.6 33.7C105.267 32.5667 103.617 31.6 101.65 30.8C99.7167 30 97.7833 29.1833 95.85 28.35C93.9167 27.5167 92.2667 26.45 90.9 25.15C89.5667 23.85 88.9 22.35 88.9 20.65ZM119.227 43.95C117.427 41.5833 116.527 37.7667 116.527 32.5C116.527 27.2333 117.427 23.4167 119.227 21.05C121.027 18.6833 124.011 17.5 128.177 17.5C132.344 17.5 135.344 18.65 137.177 20.95L136.077 21.95C134.611 19.9833 131.977 19 128.177 19C126.511 19 125.111 19.1833 123.977 19.55C122.844 19.8833 121.794 20.5333 120.827 21.5C119.894 22.4333 119.194 23.8167 118.727 25.65C118.261 27.45 118.027 29.7333 118.027 32.5C118.027 35.2667 118.261 37.5667 118.727 39.4C119.194 41.2 119.894 42.5833 120.827 43.55C121.794 44.4833 122.844 45.1333 123.977 45.5C125.111 45.8333 126.511 46 128.177 46C131.977 46 134.611 45.0167 136.077 43.05L137.177 44.05C135.344 46.35 132.344 47.5 128.177 47.5C124.011 47.5 121.027 46.3167 119.227 43.95ZM159.233 19.55C158.099 19.1833 156.699 19 155.033 19C153.366 19 151.966 19.1833 150.833 19.55C149.699 19.8833 148.649 20.5333 147.683 21.5C146.749 22.4333 146.049 23.8167 145.583 25.65C145.116 27.45 144.883 29.7333 144.883 32.5C144.883 35.2667 145.116 37.5667 145.583 39.4C146.049 41.2 146.749 42.5833 147.683 43.55C148.649 44.4833 149.699 45.1333 150.833 45.5C151.966 45.8333 153.366 46 155.033 46C156.699 46 158.099 45.8333 159.233 45.5C160.366 45.1333 161.399 44.4833 162.333 43.55C163.299 42.5833 164.016 41.2 164.483 39.4C164.949 37.5667 165.183 35.2667 165.183 32.5C165.183 29.7333 164.949 27.45 164.483 25.65C164.016 23.8167 163.299 22.4333 162.333 21.5C161.399 20.5333 160.366 19.8833 159.233 19.55ZM163.983 43.95C162.183 46.3167 159.199 47.5 155.033 47.5C150.866 47.5 147.883 46.3167 146.083 43.95C144.283 41.5833 143.383 37.7667 143.383 32.5C143.383 27.2333 144.283 23.4167 146.083 21.05C147.883 18.6833 150.866 17.5 155.033 17.5C159.199 17.5 162.183 18.6833 163.983 21.05C165.783 23.4167 166.683 27.2333 166.683 32.5C166.683 37.7667 165.783 41.5833 163.983 43.95ZM193.705 18L193.705 19.5L183.205 19.5L183.205 47L181.705 47L181.705 19.5L171.205 19.5L171.205 18L193.705 18ZM218.217 18L218.217 19.5L207.717 19.5L207.717 47L206.217 47L206.217 19.5L195.717 19.5L195.717 18L218.217 18Z" fill="url(#paint1_linear_161_525)"/>
<path d="M8.11211 67L8.11211 53.66L12.2921 53.66C14.3721 53.66 15.9321 54.22 16.9721 55.34C18.0254 56.4467 18.5521 58.1067 18.5521 60.32C18.5521 62.5333 18.0254 64.2 16.9721 65.32C15.9321 66.44 14.3721 67 12.2921 67L8.11211 67ZM9.55211 65.64L12.1921 65.64C13.8988 65.64 15.1388 65.2133 15.9121 64.36C16.6854 63.5067 17.0721 62.16 17.0721 60.32C17.0721 58.48 16.6854 57.1333 15.9121 56.28C15.1388 55.4267 13.8988 55 12.1921 55L9.55211 55L9.55211 65.64ZM25.472 67.3C24.5253 67.3 23.7053 67.1067 23.012 66.72C22.3186 66.32 21.7853 65.7267 21.412 64.94C21.0386 64.1533 20.852 63.1733 20.852 62C20.852 60.28 21.2386 58.9933 22.012 58.14C22.7986 57.2733 23.872 56.84 25.232 56.84C26.2986 56.84 27.152 57.08 27.792 57.56C28.4453 58.04 28.912 58.6867 29.192 59.5C29.472 60.3133 29.6053 61.2333 29.592 62.26L21.572 62.26L21.672 60.94L28.652 60.94L28.092 61.14C28.052 60.14 27.7986 59.3933 27.332 58.9C26.8786 58.4067 26.1786 58.16 25.232 58.16C24.5786 58.16 24.032 58.28 23.592 58.52C23.1653 58.76 22.8453 59.18 22.632 59.78C22.4186 60.3667 22.312 61.1933 22.312 62.26C22.312 63.4733 22.592 64.4 23.152 65.04C23.7253 65.6667 24.5253 65.98 25.552 65.98C26.0453 65.98 26.4986 65.9467 26.912 65.88C27.3253 65.8 27.7053 65.6933 28.052 65.56C28.3986 65.4267 28.7053 65.28 28.972 65.12L28.972 66.6C28.492 66.8267 27.9586 67 27.372 67.12C26.7986 67.24 26.1653 67.3 25.472 67.3ZM35.1095 67.3C34.3895 67.3 33.7828 67.2267 33.2895 67.08C32.8095 66.9333 32.3095 66.7267 31.7895 66.46L31.7895 64.94C32.2028 65.1667 32.5695 65.36 32.8895 65.52C33.2095 65.68 33.5361 65.8 33.8695 65.88C34.2028 65.9467 34.5828 65.98 35.0095 65.98C35.6761 65.98 36.2161 65.8333 36.6295 65.54C37.0561 65.2467 37.2695 64.8667 37.2695 64.4C37.2695 64.0267 37.1628 63.74 36.9495 63.54C36.7495 63.34 36.4895 63.1733 36.1695 63.04C35.8495 62.9067 35.5161 62.7667 35.1695 62.62C34.7828 62.5133 34.3895 62.4 33.9895 62.28C33.6028 62.1467 33.2428 61.98 32.9095 61.78C32.5895 61.5667 32.3295 61.3 32.1295 60.98C31.9295 60.6467 31.8295 60.22 31.8295 59.7C31.8295 59.1933 31.9295 58.76 32.1295 58.4C32.3428 58.04 32.6161 57.7467 32.9495 57.52C33.2828 57.28 33.6561 57.1067 34.0695 57C34.4828 56.8933 34.8961 56.84 35.3095 56.84C35.9095 56.84 36.4228 56.92 36.8495 57.08C37.2761 57.24 37.7161 57.42 38.1695 57.62L38.1695 59.06C37.6628 58.7933 37.2095 58.58 36.8095 58.42C36.4095 58.2467 35.9361 58.16 35.3895 58.16C34.8428 58.16 34.3495 58.2733 33.9095 58.5C33.4828 58.7133 33.2695 59.0467 33.2695 59.5C33.2695 59.8733 33.3761 60.1733 33.5895 60.4C33.8161 60.6133 34.1095 60.7867 34.4695 60.92C34.8295 61.04 35.2161 61.16 35.6295 61.28C35.9628 61.3867 36.3095 61.5067 36.6695 61.64C37.0295 61.76 37.3628 61.9267 37.6695 62.14C37.9761 62.34 38.2228 62.6067 38.4095 62.94C38.6095 63.2733 38.7095 63.7 38.7095 64.22C38.7095 64.9267 38.5295 65.5133 38.1695 65.98C37.8095 66.4333 37.3495 66.7667 36.7895 66.98C36.2428 67.1933 35.6828 67.3 35.1095 67.3ZM41.4905 67L41.4905 57.02L42.9305 57.02L42.9305 67L41.4905 67ZM41.4105 55.24L41.4105 53.66L43.0105 53.66L43.0105 55.24L41.4105 55.24ZM50.2752 67.3C49.2486 67.3 48.3952 67.1 47.7152 66.7C47.0486 66.2867 46.5486 65.7067 46.2152 64.96C45.8819 64.2 45.7152 63.3067 45.7152 62.28C45.7152 61.1333 45.8686 60.2067 46.1752 59.5C46.4819 58.78 46.8752 58.2333 47.3552 57.86C47.8486 57.4733 48.3819 57.2133 48.9552 57.08C49.5419 56.9333 50.1086 56.86 50.6552 56.86C51.2819 56.86 51.8752 56.9467 52.4352 57.12C53.0086 57.28 53.4752 57.54 53.8352 57.9C54.2086 58.26 54.3952 58.74 54.3952 59.34L54.3952 67.42C54.3952 67.82 54.3352 68.2267 54.2152 68.64C54.0952 69.0533 53.8752 69.4333 53.5552 69.78C53.2486 70.14 52.8086 70.4267 52.2352 70.64C51.6752 70.8533 50.9486 70.96 50.0552 70.96C49.4819 70.96 48.9552 70.9067 48.4752 70.8C47.9952 70.6933 47.5752 70.5933 47.2152 70.5L47.2152 69.14C47.4286 69.1933 47.6686 69.2533 47.9352 69.32C48.2152 69.4 48.5152 69.4667 48.8352 69.52C49.1686 69.5733 49.5219 69.6 49.8952 69.6C50.8019 69.6 51.4686 69.4867 51.8952 69.26C52.3352 69.0467 52.6219 68.7733 52.7552 68.44C52.8886 68.12 52.9552 67.7933 52.9552 67.46L52.9552 66L53.4552 66.5C53.2019 66.6333 52.8819 66.76 52.4952 66.88C52.1086 67 51.7152 67.1 51.3152 67.18C50.9152 67.26 50.5686 67.3 50.2752 67.3ZM50.2752 65.98C50.7019 65.98 51.1486 65.9267 51.6152 65.82C52.0952 65.7 52.5419 65.52 52.9552 65.28L52.9552 59.54C52.9552 59.1667 52.8486 58.8867 52.6352 58.7C52.4352 58.5 52.1619 58.3667 51.8152 58.3C51.4686 58.22 51.0952 58.18 50.6952 58.18C49.7219 58.18 48.9886 58.3733 48.4952 58.76C48.0019 59.1333 47.6686 59.6333 47.4952 60.26C47.3219 60.8867 47.2352 61.56 47.2352 62.28C47.2352 63.3733 47.4686 64.2667 47.9352 64.96C48.4019 65.64 49.1819 65.98 50.2752 65.98ZM57.602 57.82C57.922 57.66 58.2486 57.52 58.582 57.4C58.9286 57.2667 59.2753 57.16 59.622 57.08C59.982 57 60.342 56.94 60.702 56.9C61.0753 56.86 61.4486 56.84 61.822 56.84C62.7953 56.84 63.5686 56.9867 64.142 57.28C64.7153 57.56 65.1286 57.9733 65.382 58.52C65.6486 59.0667 65.782 59.7267 65.782 60.5L65.782 67L64.342 67L64.342 60.5C64.342 60.26 64.3086 60.0067 64.242 59.74C64.1886 59.4733 64.0753 59.22 63.902 58.98C63.7286 58.7267 63.462 58.5267 63.102 58.38C62.742 58.22 62.262 58.14 61.662 58.14C61.2486 58.14 60.822 58.1733 60.382 58.24C59.942 58.3067 59.4953 58.4067 59.042 58.54L59.042 67L57.602 67L57.602 57.82ZM83.4295 67L76.9695 59.3C76.6761 58.94 76.3828 58.5067 76.0895 58C75.7961 57.4933 75.6495 57.0067 75.6495 56.54C75.6495 55.98 75.7828 55.4733 76.0495 55.02C76.3295 54.5667 76.6961 54.2067 77.1495 53.94C77.6161 53.66 78.1228 53.52 78.6695 53.52C79.2428 53.52 79.7561 53.6533 80.2095 53.92C80.6628 54.1733 81.0228 54.5267 81.2895 54.98C81.5695 55.42 81.7095 55.9133 81.7095 56.46C81.7095 56.9533 81.6028 57.3867 81.3895 57.76C81.1761 58.1333 80.8695 58.48 80.4695 58.8C80.0695 59.1067 79.5895 59.42 79.0295 59.74L78.3095 58.86C78.9228 58.5267 79.3761 58.2267 79.6695 57.96C79.9628 57.6933 80.1495 57.44 80.2295 57.2C80.3228 56.9467 80.3695 56.7067 80.3695 56.48C80.3695 56.04 80.2095 55.68 79.8895 55.4C79.5695 55.1067 79.1761 54.96 78.7095 54.96C78.2561 54.96 77.8628 55.12 77.5295 55.44C77.2095 55.7467 77.0495 56.12 77.0495 56.56C77.0495 56.7333 77.1295 56.96 77.2895 57.24C77.4495 57.52 77.6361 57.8067 77.8495 58.1C78.0761 58.3933 78.2895 58.6533 78.4895 58.88L85.3095 67L83.4295 67ZM78.4495 67.16C77.6895 67.16 77.0428 67.0333 76.5095 66.78C75.9761 66.5267 75.5428 66.2 75.2095 65.8C74.8895 65.4 74.6495 64.98 74.4895 64.54C74.3428 64.1 74.2695 63.6933 74.2695 63.32C74.2695 62.8933 74.3495 62.44 74.5095 61.96C74.6828 61.48 74.9828 61 75.4095 60.52C75.8495 60.0267 76.4628 59.5667 77.2495 59.14L78.1895 60.12C77.4695 60.5067 76.9295 60.9 76.5695 61.3C76.2095 61.7 75.9695 62.0733 75.8495 62.42C75.7428 62.7533 75.6895 63.04 75.6895 63.28C75.6895 63.4533 75.7295 63.68 75.8095 63.96C75.8895 64.2267 76.0295 64.5 76.2295 64.78C76.4295 65.06 76.7161 65.2933 77.0895 65.48C77.4628 65.6667 77.9361 65.76 78.5095 65.76C79.1361 65.76 79.7161 65.6067 80.2495 65.3C80.7828 64.98 81.2161 64.64 81.5495 64.28L82.4495 65.3C82.1428 65.62 81.7828 65.92 81.3695 66.2C80.9561 66.48 80.5028 66.7133 80.0095 66.9C79.5161 67.0733 78.9961 67.16 78.4495 67.16ZM82.1495 63.36C82.2961 63.0933 82.4228 62.8267 82.5295 62.56C82.6361 62.28 82.7228 62.02 82.7895 61.78C82.8695 61.54 82.9295 61.3467 82.9695 61.2L84.2695 61.2C84.1895 61.64 84.0495 62.1467 83.8495 62.72C83.6495 63.28 83.3828 63.8333 83.0495 64.38L82.1495 63.36ZM93.4832 67L93.4832 53.66L97.6632 53.66C99.7432 53.66 101.303 54.22 102.343 55.34C103.397 56.4467 103.923 58.1067 103.923 60.32C103.923 62.5333 103.397 64.2 102.343 65.32C101.303 66.44 99.7432 67 97.6632 67L93.4832 67ZM94.9232 65.64L97.5632 65.64C99.2699 65.64 100.51 65.2133 101.283 64.36C102.057 63.5067 102.443 62.16 102.443 60.32C102.443 58.48 102.057 57.1333 101.283 56.28C100.51 55.4267 99.2699 55 97.5632 55L94.9232 55L94.9232 65.64ZM110.843 67.3C109.896 67.3 109.076 67.1067 108.383 66.72C107.69 66.32 107.156 65.7267 106.783 64.94C106.41 64.1533 106.223 63.1733 106.223 62C106.223 60.28 106.61 58.9933 107.383 58.14C108.17 57.2733 109.243 56.84 110.603 56.84C111.67 56.84 112.523 57.08 113.163 57.56C113.816 58.04 114.283 58.6867 114.563 59.5C114.843 60.3133 114.976 61.2333 114.963 62.26L106.943 62.26L107.043 60.94L114.023 60.94L113.463 61.14C113.423 60.14 113.17 59.3933 112.703 58.9C112.25 58.4067 111.55 58.16 110.603 58.16C109.95 58.16 109.403 58.28 108.963 58.52C108.536 58.76 108.216 59.18 108.003 59.78C107.79 60.3667 107.683 61.1933 107.683 62.26C107.683 63.4733 107.963 64.4 108.523 65.04C109.096 65.6667 109.896 65.98 110.923 65.98C111.416 65.98 111.87 65.9467 112.283 65.88C112.696 65.8 113.076 65.6933 113.423 65.56C113.77 65.4267 114.076 65.28 114.343 65.12L114.343 66.6C113.863 66.8267 113.33 67 112.743 67.12C112.17 67.24 111.536 67.3 110.843 67.3ZM120.277 67L116.057 57.02L117.597 57.02L121.277 65.76L120.957 65.84L124.537 57.02L125.977 57.02L121.737 67L120.277 67ZM131.702 67.3C130.756 67.3 129.936 67.1067 129.242 66.72C128.549 66.32 128.016 65.7267 127.642 64.94C127.269 64.1533 127.082 63.1733 127.082 62C127.082 60.28 127.469 58.9933 128.242 58.14C129.029 57.2733 130.102 56.84 131.462 56.84C132.529 56.84 133.382 57.08 134.022 57.56C134.676 58.04 135.142 58.6867 135.422 59.5C135.702 60.3133 135.836 61.2333 135.822 62.26L127.802 62.26L127.902 60.94L134.882 60.94L134.322 61.14C134.282 60.14 134.029 59.3933 133.562 58.9C133.109 58.4067 132.409 58.16 131.462 58.16C130.809 58.16 130.262 58.28 129.822 58.52C129.396 58.76 129.076 59.18 128.862 59.78C128.649 60.3667 128.542 61.1933 128.542 62.26C128.542 63.4733 128.822 64.4 129.382 65.04C129.956 65.6667 130.756 65.98 131.782 65.98C132.276 65.98 132.729 65.9467 133.142 65.88C133.556 65.8 133.936 65.6933 134.282 65.56C134.629 65.4267 134.936 65.28 135.202 65.12L135.202 66.6C134.722 66.8267 134.189 67 133.602 67.12C133.029 67.24 132.396 67.3 131.702 67.3ZM139.96 67L138.52 67L138.52 53.22L139.96 53.22L139.96 67ZM147.268 67.3C145.708 67.3 144.548 66.84 143.788 65.92C143.042 64.9867 142.668 63.6933 142.668 62.04C142.668 60.3067 143.062 59.0067 143.848 58.14C144.648 57.2733 145.775 56.84 147.228 56.84C148.308 56.84 149.188 57.06 149.868 57.5C150.548 57.9267 151.048 58.5333 151.368 59.32C151.688 60.0933 151.848 61 151.848 62.04C151.848 63.68 151.448 64.9667 150.648 65.9C149.862 66.8333 148.735 67.3 147.268 67.3ZM147.248 65.98C148.062 65.98 148.695 65.8067 149.148 65.46C149.602 65.1 149.922 64.6267 150.108 64.04C150.308 63.44 150.408 62.7733 150.408 62.04C150.408 61.2533 150.308 60.5733 150.108 60C149.908 59.4133 149.575 58.96 149.108 58.64C148.655 58.32 148.035 58.16 147.248 58.16C146.448 58.16 145.822 58.3333 145.368 58.68C144.915 59.0267 144.588 59.4933 144.388 60.08C144.202 60.6533 144.108 61.3067 144.108 62.04C144.108 63.2133 144.342 64.1667 144.808 64.9C145.275 65.62 146.088 65.98 147.248 65.98ZM158.475 67.28C158.182 67.28 157.848 67.24 157.475 67.16C157.115 67.08 156.762 66.98 156.415 66.86C156.068 66.74 155.762 66.6133 155.495 66.48L155.995 65.98L155.995 71.34L154.555 71.34L154.555 58.82C154.555 58.4067 154.682 58.0733 154.935 57.82C155.202 57.5667 155.542 57.3733 155.955 57.24C156.368 57.0933 156.808 56.9933 157.275 56.94C157.742 56.8733 158.182 56.84 158.595 56.84C159.395 56.84 160.148 57.0067 160.855 57.34C161.562 57.6733 162.135 58.24 162.575 59.04C163.015 59.8267 163.235 60.9 163.235 62.26C163.235 63.2867 163.048 64.18 162.675 64.94C162.315 65.6867 161.782 66.2667 161.075 66.68C160.368 67.08 159.502 67.28 158.475 67.28ZM158.475 65.96C159.208 65.96 159.808 65.8067 160.275 65.5C160.755 65.18 161.115 64.74 161.355 64.18C161.595 63.62 161.715 62.98 161.715 62.26C161.715 61.54 161.635 60.8667 161.475 60.24C161.315 59.6133 161.008 59.1133 160.555 58.74C160.102 58.3533 159.442 58.16 158.575 58.16C157.882 58.16 157.275 58.24 156.755 58.4C156.248 58.56 155.995 58.7867 155.995 59.08L155.995 65.26C156.408 65.5 156.822 65.68 157.235 65.8C157.648 65.9067 158.062 65.96 158.475 65.96ZM174.122 60.5L174.122 67L172.682 67L172.682 60.5C172.682 60.26 172.648 60.0067 172.582 59.74C172.528 59.4733 172.415 59.22 172.242 58.98C172.068 58.7267 171.802 58.5267 171.442 58.38C171.082 58.22 170.602 58.14 170.002 58.14C169.588 58.14 169.162 58.1733 168.722 58.24C168.282 58.3067 167.835 58.4067 167.382 58.54L167.382 67L165.942 67L165.942 57.82C166.262 57.66 166.588 57.52 166.922 57.4C167.268 57.2667 167.615 57.16 167.962 57.08C168.322 57 168.682 56.94 169.042 56.9C169.415 56.86 169.788 56.84 170.162 56.84C171.135 56.84 171.908 56.9867 172.482 57.28C173.055 57.56 173.468 57.9733 173.722 58.52C173.988 59.0667 174.122 59.7267 174.122 60.5ZM172.222 58.22C172.662 57.8867 173.108 57.62 173.562 57.42C174.015 57.22 174.482 57.0733 174.962 56.98C175.455 56.8867 175.948 56.84 176.442 56.84C177.415 56.84 178.188 56.9867 178.762 57.28C179.335 57.56 179.748 57.9733 180.002 58.52C180.268 59.0667 180.402 59.7267 180.402 60.5L180.402 67L178.962 67L178.962 60.5C178.962 60.26 178.928 60.0067 178.862 59.74C178.808 59.4733 178.695 59.22 178.522 58.98C178.348 58.7267 178.082 58.5267 177.722 58.38C177.362 58.22 176.882 58.14 176.282 58.14C175.868 58.14 175.442 58.2 175.002 58.32C174.562 58.44 174.115 58.6467 173.662 58.94L172.222 58.22ZM187.718 67.3C186.771 67.3 185.951 67.1067 185.258 66.72C184.565 66.32 184.031 65.7267 183.658 64.94C183.285 64.1533 183.098 63.1733 183.098 62C183.098 60.28 183.485 58.9933 184.258 58.14C185.045 57.2733 186.118 56.84 187.478 56.84C188.545 56.84 189.398 57.08 190.038 57.56C190.691 58.04 191.158 58.6867 191.438 59.5C191.718 60.3133 191.851 61.2333 191.838 62.26L183.818 62.26L183.918 60.94L190.898 60.94L190.338 61.14C190.298 60.14 190.045 59.3933 189.578 58.9C189.125 58.4067 188.425 58.16 187.478 58.16C186.825 58.16 186.278 58.28 185.838 58.52C185.411 58.76 185.091 59.18 184.878 59.78C184.665 60.3667 184.558 61.1933 184.558 62.26C184.558 63.4733 184.838 64.4 185.398 65.04C185.971 65.6667 186.771 65.98 187.798 65.98C188.291 65.98 188.745 65.9467 189.158 65.88C189.571 65.8 189.951 65.6933 190.298 65.56C190.645 65.4267 190.951 65.28 191.218 65.12L191.218 66.6C190.738 66.8267 190.205 67 189.618 67.12C189.045 67.24 188.411 67.3 187.718 67.3ZM194.536 57.82C194.856 57.66 195.182 57.52 195.516 57.4C195.862 57.2667 196.209 57.16 196.556 57.08C196.916 57 197.276 56.94 197.636 56.9C198.009 56.86 198.382 56.84 198.756 56.84C199.729 56.84 200.502 56.9867 201.076 57.28C201.649 57.56 202.062 57.9733 202.316 58.52C202.582 59.0667 202.716 59.7267 202.716 60.5L202.716 67L201.276 67L201.276 60.5C201.276 60.26 201.242 60.0067 201.176 59.74C201.122 59.4733 201.009 59.22 200.836 58.98C200.662 58.7267 200.396 58.5267 200.036 58.38C199.676 58.22 199.196 58.14 198.596 58.14C198.182 58.14 197.756 58.1733 197.316 58.24C196.876 58.3067 196.429 58.4067 195.976 58.54L195.976 67L194.536 67L194.536 57.82ZM209.062 67.16C208.356 67.16 207.762 66.9467 207.282 66.52C206.802 66.08 206.562 65.4333 206.562 64.58L206.562 58.34L204.822 58.34L204.822 57.02L206.562 57.02L206.562 54.2L208.002 54.2L208.002 57.02L210.582 57.02L210.582 58.34L208.002 58.34L208.002 64.12C208.002 64.68 208.089 65.1 208.262 65.38C208.436 65.66 208.789 65.8 209.322 65.8C209.562 65.8 209.796 65.78 210.022 65.74C210.249 65.6867 210.436 65.6267 210.582 65.56L210.582 66.92C210.396 66.9867 210.156 67.04 209.862 67.08C209.582 67.1333 209.316 67.16 209.062 67.16Z" fill="url(#paint2_linear_161_525)"/>
<defs>
<linearGradient id="paint0_linear_161_525" x1="42.5" y1="2.20569e-07" x2="42.5" y2="59" gradientUnits="userSpaceOnUse">
<stop stop-color="white"/>
<stop offset="1" stop-color="#EBEBEB"/>
</linearGradient>
<linearGradient id="paint1_linear_161_525" x1="152.5" y1="3.50316e-07" x2="152.5" y2="59" gradientUnits="userSpaceOnUse">
<stop stop-color="white"/>
<stop offset="1" stop-color="#EBEBEB"/>
</linearGradient>
<linearGradient id="paint2_linear_161_525" x1="109" y1="47" x2="109" y2="71" gradientUnits="userSpaceOnUse">
<stop stop-color="white"/>
<stop offset="1" stop-color="#EBEBEB"/>
</linearGradient>
</defs>
</svg>
