<svg width="220" height="59" viewBox="0 0 220 59" fill="none" xmlns="http://www.w3.org/2000/svg">
<path d="M2.8 39.45C4.26667 43.8167 7.1 46 11.3 46C14.1333 46 16.1 45.2 17.2 43.6C18.3333 41.9667 18.9 39.7333 18.9 36.9L18.9 12L20.4 12L20.4 36.9C20.4 43.9667 17.3667 47.5 11.3 47.5C8.43333 47.5 6.21667 46.7833 4.65 45.35C3.11667 43.9167 1.9 41.95 1 39.45L2.8 39.45ZM44.5453 19.55C43.412 19.1833 42.012 19 40.3453 19C38.6786 19 37.2786 19.1833 36.1453 19.55C35.012 19.8833 33.962 20.5333 32.9953 21.5C32.062 22.4333 31.362 23.8167 30.8953 25.65C30.4286 27.45 30.1953 29.7333 30.1953 32.5C30.1953 35.2667 30.4286 37.5667 30.8953 39.4C31.362 41.2 32.062 42.5833 32.9953 43.55C33.962 44.4833 35.012 45.1333 36.1453 45.5C37.2786 45.8333 38.6786 46 40.3453 46C42.012 46 43.412 45.8333 44.5453 45.5C45.6786 45.1333 46.712 44.4833 47.6453 43.55C48.612 42.5833 49.3286 41.2 49.7953 39.4C50.262 37.5667 50.4953 35.2667 50.4953 32.5C50.4953 29.7333 50.262 27.45 49.7953 25.65C49.3286 23.8167 48.612 22.4333 47.6453 21.5C46.712 20.5333 45.6786 19.8833 44.5453 19.55ZM49.2953 43.95C47.4953 46.3167 44.512 47.5 40.3453 47.5C36.1786 47.5 33.1953 46.3167 31.3953 43.95C29.5953 41.5833 28.6953 37.7667 28.6953 32.5C28.6953 27.2333 29.5953 23.4167 31.3953 21.05C33.1953 18.6833 36.1786 17.5 40.3453 17.5C44.512 17.5 47.4953 18.6833 49.2953 21.05C51.0953 23.4167 51.9953 27.2333 51.9953 32.5C51.9953 37.7667 51.0953 41.5833 49.2953 43.95ZM60.2676 47L60.2676 18L61.7676 18L78.0676 44.25L78.0676 18L79.5676 18L79.5676 47L78.0676 47L61.7676 20.7L61.7676 47L60.2676 47Z" fill="url(#paint0_linear_130_926)"/>
<path d="M88.9 20.65C88.9 17.4167 89.7167 15.0833 91.35 13.65C92.9833 12.2167 95.6333 11.5 99.3 11.5C101.867 11.5 103.933 12.1667 105.5 13.5C107.067 14.8333 108.2 16.8667 108.9 19.6L104.25 23.1L101.8 23.1L107.2 19.05C106.5 16.8167 105.483 15.25 104.15 14.35C102.85 13.45 101.233 13 99.3 13C97.9667 13 96.8333 13.0833 95.9 13.25C95 13.4167 94.0833 13.75 93.15 14.25C92.25 14.7167 91.5667 15.4833 91.1 16.55C90.6333 17.6167 90.4 18.9833 90.4 20.65C90.4 22.1167 91.0667 23.4167 92.4 24.55C93.7667 25.6833 95.4167 26.65 97.35 27.45C99.2833 28.25 101.217 29.0667 103.15 29.9C105.117 30.7333 106.767 31.8 108.1 33.1C109.467 34.4 110.15 35.9 110.15 37.6C110.15 40.9333 109.317 43.4167 107.65 45.05C106.017 46.6833 103.2 47.5 99.2 47.5C95.9333 47.5 93.3667 46.85 91.5 45.55C89.6333 44.2167 88.35 42.1667 87.65 39.4L89.05 38.8C89.7167 41.5 90.85 43.3833 92.45 44.45C94.0833 45.4833 96.3333 46 99.2 46C102.4 46 104.767 45.3833 106.3 44.15C107.867 42.9167 108.65 40.7333 108.65 37.6C108.65 36.1333 107.967 34.8333 106.6 33.7C105.267 32.5667 103.617 31.6 101.65 30.8C99.7167 30 97.7833 29.1833 95.85 28.35C93.9167 27.5167 92.2667 26.45 90.9 25.15C89.5667 23.85 88.9 22.35 88.9 20.65ZM119.227 43.95C117.427 41.5833 116.527 37.7667 116.527 32.5C116.527 27.2333 117.427 23.4167 119.227 21.05C121.027 18.6833 124.011 17.5 128.177 17.5C132.344 17.5 135.344 18.65 137.177 20.95L136.077 21.95C134.611 19.9833 131.977 19 128.177 19C126.511 19 125.111 19.1833 123.977 19.55C122.844 19.8833 121.794 20.5333 120.827 21.5C119.894 22.4333 119.194 23.8167 118.727 25.65C118.261 27.45 118.027 29.7333 118.027 32.5C118.027 35.2667 118.261 37.5667 118.727 39.4C119.194 41.2 119.894 42.5833 120.827 43.55C121.794 44.4833 122.844 45.1333 123.977 45.5C125.111 45.8333 126.511 46 128.177 46C131.977 46 134.611 45.0167 136.077 43.05L137.177 44.05C135.344 46.35 132.344 47.5 128.177 47.5C124.011 47.5 121.027 46.3167 119.227 43.95ZM159.233 19.55C158.099 19.1833 156.699 19 155.033 19C153.366 19 151.966 19.1833 150.833 19.55C149.699 19.8833 148.649 20.5333 147.683 21.5C146.749 22.4333 146.049 23.8167 145.583 25.65C145.116 27.45 144.883 29.7333 144.883 32.5C144.883 35.2667 145.116 37.5667 145.583 39.4C146.049 41.2 146.749 42.5833 147.683 43.55C148.649 44.4833 149.699 45.1333 150.833 45.5C151.966 45.8333 153.366 46 155.033 46C156.699 46 158.099 45.8333 159.233 45.5C160.366 45.1333 161.399 44.4833 162.333 43.55C163.299 42.5833 164.016 41.2 164.483 39.4C164.949 37.5667 165.183 35.2667 165.183 32.5C165.183 29.7333 164.949 27.45 164.483 25.65C164.016 23.8167 163.299 22.4333 162.333 21.5C161.399 20.5333 160.366 19.8833 159.233 19.55ZM163.983 43.95C162.183 46.3167 159.199 47.5 155.033 47.5C150.866 47.5 147.883 46.3167 146.083 43.95C144.283 41.5833 143.383 37.7667 143.383 32.5C143.383 27.2333 144.283 23.4167 146.083 21.05C147.883 18.6833 150.866 17.5 155.033 17.5C159.199 17.5 162.183 18.6833 163.983 21.05C165.783 23.4167 166.683 27.2333 166.683 32.5C166.683 37.7667 165.783 41.5833 163.983 43.95ZM193.705 18L193.705 19.5L183.205 19.5L183.205 47L181.705 47L181.705 19.5L171.205 19.5L171.205 18L193.705 18ZM218.217 18L218.217 19.5L207.717 19.5L207.717 47L206.217 47L206.217 19.5L195.717 19.5L195.717 18L218.217 18Z" fill="url(#paint1_linear_130_926)"/>
<defs>
<linearGradient id="paint0_linear_130_926" x1="42.5" y1="2.20569e-07" x2="42.5" y2="59" gradientUnits="userSpaceOnUse">
<stop stop-color="white"/>
<stop offset="1" stop-color="#EBEBEB"/>
</linearGradient>
<linearGradient id="paint1_linear_130_926" x1="152.5" y1="3.50316e-07" x2="152.5" y2="59" gradientUnits="userSpaceOnUse">
<stop stop-color="white"/>
<stop offset="1" stop-color="#EBEBEB"/>
</linearGradient>
</defs>
</svg>
