<svg width="200" height="90" viewBox="0 0 200 90" fill="none" xmlns="http://www.w3.org/2000/svg">
<mask id="mask0_1323_1890" style="mask-type:alpha" maskUnits="userSpaceOnUse" x="0" y="0" width="200" height="90">
<rect width="200" height="89.342" fill="white"/>
</mask>
<g mask="url(#mask0_1323_1890)">
<g filter="url(#filter0_dii_1323_1890)">
<path d="M10.9924 24.9291C11.4505 22.3309 12.9623 20.3577 15.5276 19.0094C18.093 17.6612 21.3887 16.9028 25.4149 16.7344C25.9858 14.9906 26.9615 13.6914 28.3419 12.8369C29.7222 11.9823 30.8809 11.6377 31.818 11.8029C32.7976 11.9756 33.5155 12.3877 33.9715 13.039C34.4777 13.6553 34.6519 14.4106 34.4942 15.3051C34.1262 17.3921 32.4014 18.5812 29.3198 18.8722C26.5781 30.6856 25.1809 36.7413 25.1283 37.0395C26.5338 36.5407 28.1447 36.1221 29.9611 35.7836C31.8275 35.41 33.1228 35.2871 33.8469 35.4148C34.571 35.5424 34.9067 35.7553 34.8541 36.0535C34.7565 36.6072 34.4371 36.9242 33.896 37.0044C30.9697 37.4107 27.8794 38.2492 24.6251 39.5199C22.6921 48.4895 21.5254 53.8612 21.1248 55.6351C19.9404 60.6085 18.1571 64.2466 15.7747 66.5494C13.3924 68.8522 10.4976 69.7032 7.09013 69.1023C4.40678 68.6292 2.47241 67.1463 1.287 64.6536C0.0940918 62.2034 -0.269546 59.658 0.196091 57.0172C0.856995 53.2691 2.80073 49.9667 6.02728 47.1101C9.26135 44.2109 13.8947 41.4706 19.9274 38.8892L24.8289 18.9367C19.2544 18.92 16.1404 20.7644 15.487 24.47C15.2993 25.5348 14.9186 26.324 14.3449 26.8377C13.8138 27.3589 13.2075 27.5594 12.5261 27.4393C11.2483 27.214 10.7371 26.3772 10.9924 24.9291ZM8.39014 66.96C11.2865 67.4707 13.5572 64.5554 15.2024 58.214C16.0287 55.022 16.8087 51.8438 17.5423 48.6794C18.3186 45.5225 18.8694 43.27 19.1949 41.9221C17.2308 42.8493 15.6375 43.6663 14.415 44.373C13.2 45.0371 11.8584 45.9205 10.3904 47.023C7.58218 49.2507 5.84761 52.2387 5.18671 55.9868C4.54833 59.6072 4.67776 62.4847 5.57499 64.6191C6.17397 65.9544 7.11235 66.7347 8.39014 66.96ZM32.01 14.0765C31.0729 13.9113 30.3502 14.772 29.8419 16.6586C31.4578 16.4605 32.3334 15.9781 32.4686 15.2114C32.5888 14.5299 32.4359 14.1516 32.01 14.0765Z" fill="url(#paint0_linear_1323_1890)"/>
<path d="M52.3284 34.3262C54.1297 34.073 55.3837 33.811 56.0901 33.5403C56.8467 33.2345 57.4142 33.0052 57.7925 32.8523L58.638 32.5403C58.8735 32.45 59.0551 32.4162 59.1829 32.4387C59.5237 32.4988 59.6602 32.7205 59.5926 33.1039C59.525 33.4872 58.7447 34.0523 57.2516 34.7991C55.766 35.5033 53.9759 36.066 51.8815 36.4872C50.9525 40.0124 49.3131 42.7097 46.9633 44.5791C44.6134 46.4485 41.6283 47.0639 38.008 46.4256C35.3672 45.9599 33.528 44.5597 32.4905 42.2248C31.4604 39.8473 31.1932 37.253 31.6889 34.4419C32.1921 31.5881 33.4958 29.0512 35.6 26.8312C37.7469 24.6186 40.1407 23.7451 42.7814 24.2108C44.1242 23.5692 45.6049 23.3911 47.2234 23.6765C48.8845 23.9694 50.2639 25.1129 51.3616 27.1071C52.4592 29.1012 52.7815 31.5076 52.3284 34.3262ZM47.6011 36.8524L45.2785 36.5746C43.3192 36.2291 41.7595 35.3612 40.5993 33.9709C39.4466 32.5379 38.9942 31.1187 39.242 29.7131C39.4899 28.3076 39.9382 27.135 40.587 26.1954C38.5001 27.3206 37.0812 30.0128 36.3301 34.2721C35.9697 36.3166 36.0501 38.3509 36.5715 40.3752C37.1004 42.3569 38.2806 43.5092 40.1121 43.8322C41.9436 44.1551 43.5057 43.6401 44.7983 42.287C46.0984 40.8913 47.0326 39.0797 47.6011 36.8524ZM45.51 25.5483C44.8285 25.4281 44.2398 25.6537 43.7438 26.225C43.2553 26.7537 42.9472 27.3801 42.8195 28.1042C42.5417 29.6801 42.8488 31.0518 43.7408 32.2191C44.6755 33.3941 45.8669 34.1092 47.3151 34.3645L48.0818 34.4997C48.3646 32.3976 48.3367 30.4384 47.9983 28.6221C47.7024 26.8132 46.8729 25.7886 45.51 25.5483Z" fill="url(#paint1_linear_1323_1890)"/>
<path d="M60.1968 39.9208L59.9114 41.9126C59.7011 43.1052 59.2552 43.6414 58.5738 43.5213C57.5515 43.341 56.5944 43.0405 55.7024 42.6197C54.818 42.1564 54.417 41.6904 54.4997 41.2219C54.5898 40.7108 54.9929 39.0471 55.7091 36.231C56.4753 33.3797 56.9861 31.23 57.2415 29.7818L57.9061 26.0124C58.2666 23.9679 58.6974 22.7703 59.1984 22.4194C59.6994 22.0686 60.5537 21.5825 61.7612 20.9609C63.0114 20.3469 63.8707 20.0813 64.3392 20.1639C64.8503 20.254 65.1547 20.3955 65.2525 20.5884C65.3502 20.7813 65.3578 21.112 65.2752 21.5805C64.8771 23.838 64.0757 25.8925 62.8708 27.7442C62.2298 30.1344 61.8266 31.798 61.6614 32.7351C61.8768 32.5096 63.0266 31.2191 65.1108 28.8638C67.195 26.5084 68.8997 24.8108 70.2249 23.7708C71.5927 22.7384 72.7238 22.3011 73.6183 22.4588C74.5127 22.6165 75.2481 23.0536 75.8244 23.77C76.4434 24.494 76.674 25.3032 76.5163 26.1977C76.1858 28.0718 75.4847 30.8028 74.4129 34.3906C73.3912 37.9434 72.7939 40.2097 72.6212 41.1893C72.456 42.1263 72.5012 42.6174 72.7567 42.6624C73.4883 42.7475 74.6469 42.0296 76.2327 40.5086C77.8259 38.945 79.4842 36.8878 81.2075 34.3371C82.9735 31.7938 83.9842 30.5448 84.2398 30.5898C84.5379 30.6424 84.657 30.8391 84.5969 31.1798C84.3866 32.3724 83.4348 34.1589 81.7415 36.5393C77.1149 43.1015 73.6516 46.1799 71.3516 45.7744C69.6905 45.4814 68.4941 44.9192 67.7624 44.0875C67.5168 43.7367 67.5029 42.9438 67.7207 41.7086C67.946 40.4308 68.413 38.4051 69.1216 35.6315C69.8804 32.8229 70.3837 30.7158 70.6315 29.3102C70.8794 27.9046 70.7477 27.1568 70.2366 27.0667C69.7681 26.9841 68.2312 28.2282 65.6259 30.7991C63.0282 33.3274 61.5941 34.9849 61.3236 35.7717C60.8052 37.2174 60.4296 38.6004 60.1968 39.9208Z" fill="url(#paint2_linear_1323_1890)"/>
<path d="M97.6035 43.7786C95.9424 43.4857 94.746 42.9234 94.0143 42.0917C93.7687 41.7409 93.7511 40.9693 93.9613 39.7767C94.1791 38.5415 94.5109 36.9092 94.9566 34.8797C93.361 37.453 91.8893 39.3235 90.5416 40.4912C89.2439 41.6238 87.7433 42.0399 86.0395 41.7395C84.3358 41.4391 82.984 40.3883 81.9841 38.587C80.9917 36.7432 80.7959 34.1176 81.3967 30.7101C82.0051 27.2601 83.5004 24.3837 85.8827 22.0809C88.3076 19.7856 91.096 18.9159 94.2479 19.4716C95.6109 19.7119 96.9865 20.8768 98.3748 22.9661C98.7981 22.5576 99.4921 22.1091 100.457 21.6204C101.471 21.0966 102.277 20.8873 102.873 20.9925C103.512 21.1051 103.689 21.9707 103.403 23.5892C103.328 24.0152 103.054 24.8232 102.581 26.0133C102.15 27.211 101.736 28.0603 101.341 28.5615C100.785 29.4735 99.9809 32.911 98.9294 38.874C98.7267 40.0241 98.753 40.6216 99.0086 40.6666C99.7402 40.7517 100.899 40.0338 102.485 38.5128C104.078 36.9492 105.736 34.892 107.459 32.3413C109.225 29.7981 110.236 28.549 110.492 28.594C110.79 28.6466 110.909 28.8433 110.849 29.184C110.638 30.3766 109.687 32.1631 107.993 34.5435C103.367 41.1057 99.9035 44.1841 97.6035 43.7786ZM93.4139 21.9596C92.2213 21.7493 90.7858 22.4185 89.1074 23.967C87.4791 25.4805 86.4547 27.4299 86.0341 29.8151C85.6135 32.2003 85.6088 34.2196 86.0199 35.8731C86.4736 37.5341 87.2755 38.466 88.4255 38.6688C89.8311 38.9167 92.5164 35.767 96.4816 29.2198C96.5842 28.8866 96.7282 28.3191 96.9135 27.5173C97.1489 26.6805 97.3254 26.0529 97.4431 25.6345C97.18 24.8854 96.6111 24.1263 95.7366 23.3573C94.9123 22.5532 94.138 22.0873 93.4139 21.9596Z" fill="url(#paint3_linear_1323_1890)"/>
<path d="M121.731 30.1529C117.105 36.7152 113.62 39.7898 111.278 39.3767C108.978 38.9712 107.663 38.454 107.335 37.8252C107.049 37.2039 107.181 35.3386 107.729 32.2293C108.277 29.12 109.368 24.6791 111 18.9064C108.946 18.105 107.971 17.0328 108.076 15.6899C108.196 15.0084 108.704 14.7465 109.598 14.9042C110.493 15.0619 111.25 15.3712 111.872 15.8322C112.796 12.8331 113.791 9.80264 114.858 6.74089C115.129 5.95416 115.669 5.25883 116.478 4.65492C117.287 4.05101 118.011 3.80538 118.65 3.91803C119.204 4.01566 119.326 4.93763 119.019 6.68394C118.876 7.4932 117.921 11.1675 116.153 17.7069C117.34 17.6967 118.672 17.4923 120.147 17.0937C121.666 16.7027 122.553 16.5297 122.808 16.5747C123.575 16.7099 123.917 17.0118 123.834 17.4803C123.802 17.9137 122.909 18.3711 121.155 18.8524C119.409 19.2911 117.565 19.5368 115.623 19.5897C114.015 25.7182 112.93 30.3796 112.367 33.5741C112.066 35.2778 112.172 36.1747 112.683 36.2648C113.457 36.3574 114.637 35.6432 116.223 34.1222C117.808 32.6012 119.463 30.5654 121.186 28.0146C122.96 25.4288 123.974 24.1584 124.23 24.2035C124.528 24.2561 124.647 24.4527 124.587 24.7935C124.377 25.9861 123.425 27.7725 121.731 30.1529Z" fill="url(#paint4_linear_1323_1890)"/>
<path d="M126.04 34.2445L125.755 36.2364C125.544 37.429 125.098 37.9652 124.417 37.845C123.395 37.6648 122.438 37.3643 121.546 36.9435C120.661 36.4801 120.26 36.0141 120.343 35.5456C120.433 35.0345 120.836 33.3709 121.552 30.5547C122.318 27.7034 122.829 25.5537 123.085 24.1056L123.738 20.4C125.661 9.49624 128.823 2.89532 133.224 0.597248C134.239 0.0734791 135.215 -0.105792 136.152 0.0594336C136.578 0.134536 136.921 0.678161 137.182 1.69031C137.443 2.70245 137.441 3.9539 137.179 5.44465C136.533 9.10764 135.311 12.4275 133.512 15.4041C131.714 18.3808 130.025 20.6083 128.447 22.0867C128.217 23.1441 127.903 24.8014 127.505 27.0588C127.72 26.8333 128.87 25.5429 130.954 23.1875C133.038 20.8321 134.743 19.1345 136.068 18.0946C137.436 17.0622 138.567 16.6248 139.461 16.7825C140.356 16.9402 141.091 17.3773 141.668 18.0938C142.286 18.8178 142.517 19.627 142.359 20.5214C142.029 22.3955 141.328 25.1265 140.256 28.7144C139.234 32.2672 138.637 34.5334 138.464 35.513C138.299 36.4501 138.344 36.9411 138.6 36.9862C139.331 37.0713 140.49 36.3533 142.076 34.8323C143.669 33.2687 145.327 31.2116 147.051 28.6608C148.817 26.1176 149.827 24.8685 150.083 24.9136C150.381 24.9661 150.5 25.1628 150.44 25.5035C150.23 26.6961 149.278 28.4826 147.585 30.863C142.958 37.4253 139.495 40.5037 137.195 40.0981C135.534 39.8052 134.337 39.2429 133.606 38.4112C133.36 38.0605 133.346 37.2675 133.564 36.0323C133.789 34.7546 134.256 32.7289 134.965 29.9553C135.724 27.1466 136.227 25.0395 136.475 23.634C136.722 22.2284 136.591 21.4805 136.08 21.3904C135.611 21.3078 134.074 22.552 131.469 25.1229C128.871 27.6512 127.437 29.3087 127.167 30.0954C126.648 31.5411 126.273 32.9242 126.04 34.2445ZM135.206 6.54605C135.521 4.75715 135.445 3.82139 134.976 3.73878C134.209 3.60359 133.047 5.83607 131.49 10.4362C130.663 12.8816 129.872 15.7504 129.116 19.0426C132.552 14.2468 134.582 10.0813 135.206 6.54605Z" fill="url(#paint5_linear_1323_1890)"/>
<path d="M167.718 24.231C169.519 23.9777 170.773 23.7157 171.479 23.445C172.236 23.1393 172.803 22.9099 173.182 22.7571L174.027 22.445C174.263 22.3548 174.444 22.3209 174.572 22.3435C174.913 22.4036 175.049 22.6253 174.982 23.0086C174.914 23.3919 174.134 23.957 172.641 24.7038C171.155 25.4081 169.365 25.9708 167.271 26.392C166.342 29.9172 164.702 32.6145 162.352 34.4838C160.003 36.3532 157.018 36.9687 153.397 36.3303C150.756 35.8647 148.917 34.4644 147.88 32.1295C146.85 29.752 146.582 27.1577 147.078 24.3466C147.581 21.4929 148.885 18.956 150.989 16.7359C153.136 14.5233 155.53 13.6499 158.171 14.1155C159.513 13.4739 160.994 13.2959 162.613 13.5812C164.274 13.8742 165.653 15.0177 166.751 17.0118C167.848 19.006 168.171 21.4124 167.718 24.231ZM162.99 26.7571L160.668 26.4793C158.708 26.1339 157.149 25.2659 155.989 23.8756C154.836 22.4427 154.383 21.0234 154.631 19.6179C154.879 18.2123 155.327 17.0397 155.976 16.1001C153.889 17.2253 152.47 19.9176 151.719 24.1769C151.359 26.2213 151.439 28.2557 151.961 30.28C152.49 32.2617 153.67 33.414 155.501 33.7369C157.333 34.0599 158.895 33.5448 160.188 32.1917C161.488 30.796 162.422 28.9845 162.99 26.7571ZM160.899 15.453C160.218 15.3329 159.629 15.5584 159.133 16.1297C158.645 16.6584 158.336 17.2848 158.209 18.0089C157.931 19.5848 158.238 20.9565 159.13 22.1239C160.065 23.2988 161.256 24.0139 162.704 24.2693L163.471 24.4045C163.754 22.3024 163.726 20.3432 163.388 18.5268C163.092 16.7179 162.262 15.6934 160.899 15.453Z" fill="url(#paint6_linear_1323_1890)"/>
<path d="M175.586 29.8255L175.301 31.8174C175.09 33.01 174.644 33.5462 173.963 33.426C172.941 33.2458 171.984 32.9453 171.092 32.5245C170.207 32.0611 169.806 31.5951 169.889 31.1266C169.979 30.6155 170.382 28.9519 171.098 26.1357C171.865 23.2844 172.375 21.1347 172.631 19.6866L173.295 15.9171C173.656 13.8727 174.087 12.675 174.588 12.3242C175.089 11.9734 175.943 11.4872 177.15 10.8657C178.401 10.2517 179.26 9.986 179.728 10.0686C180.24 10.1587 180.544 10.3003 180.642 10.4932C180.739 10.6861 180.747 11.0168 180.664 11.4853C180.266 13.7427 179.465 15.7973 178.26 17.6489C177.619 20.0392 177.216 21.7028 177.051 22.6398C177.266 22.4143 178.416 21.1239 180.5 18.7685C182.584 16.4131 184.289 14.7155 185.614 13.6756C186.982 12.6432 188.113 12.2058 189.008 12.3635C189.902 12.5212 190.637 12.9583 191.214 13.6748C191.833 14.3988 192.063 15.208 191.906 16.1024C191.575 17.9765 190.874 20.7075 189.802 24.2954C188.78 27.8482 188.183 30.1144 188.01 31.094C187.845 32.0311 187.89 32.5221 188.146 32.5672C188.878 32.6523 190.036 31.9343 191.622 30.4133C193.215 28.8497 194.873 26.7926 196.597 24.2418C198.363 21.6986 199.373 20.4495 199.629 20.4946C199.927 20.5471 200.046 20.7438 199.986 21.0845C199.776 22.2771 198.824 24.0636 197.131 26.444C192.504 33.0063 189.041 36.0847 186.741 35.6791C185.08 35.3862 183.883 34.8239 183.152 33.9922C182.906 33.6415 182.892 32.8485 183.11 31.6133C183.335 30.3356 183.802 28.3099 184.511 25.5363C185.27 22.7276 185.773 20.6205 186.021 19.215C186.269 17.8094 186.137 17.0615 185.626 16.9714C185.157 16.8888 183.62 18.133 181.015 20.7039C178.417 23.2322 176.983 24.8897 176.713 25.6764C176.194 27.1221 175.819 28.5052 175.586 29.8255Z" fill="url(#paint7_linear_1323_1890)"/>
<path d="M65.2728 60.5451L65.8852 58.9403C66.1204 56.6103 64.7685 55.1861 61.8296 54.6679C60.1259 54.3675 58.5262 54.7223 57.0306 55.7321C55.5852 56.7069 54.7423 57.8758 54.5019 59.2388C54.2691 60.5592 54.6163 61.8281 55.5435 63.0456C56.5207 64.228 57.726 65.3628 59.1592 66.4499C60.6426 67.502 62.0896 68.6355 63.5003 69.8504C64.9611 71.0303 66.1176 72.4419 66.9696 74.0853C67.8643 75.7363 68.1501 77.4775 67.8272 79.309C67.1588 83.0997 65.1423 85.8184 61.7778 87.4649C58.4133 89.1114 55.006 89.6305 51.556 89.0222C48.1059 88.4138 45.3398 87.2893 43.2576 85.6485C41.1829 83.9652 40.3709 81.8457 40.8215 79.2902C41.0618 77.9272 41.7481 76.7746 42.8804 75.8324C44.0127 74.8902 45.452 74.5731 47.1984 74.881C47.8798 75.0012 48.4636 75.3018 48.9498 75.7827C49.4359 76.2637 49.6865 76.8349 49.7016 77.4963C49.589 78.1352 49.1493 78.3871 48.3826 78.2519C46.9345 77.9965 46.1015 78.4865 45.8837 79.7216C45.6785 81.1347 46.1133 82.5289 47.1883 83.9042C48.3059 85.2871 50.036 86.185 52.3787 86.5981C54.7639 87.0186 56.9297 86.5661 58.8762 85.2405C60.8653 83.9224 62.0627 82.1133 62.4682 79.8133C62.7386 78.2799 62.4077 76.7943 61.4755 75.3563C60.5432 73.9184 59.343 72.6307 57.8746 71.4935C56.4138 70.3137 54.9317 69.1301 53.4283 67.9427C51.9675 66.7629 50.7748 65.4327 49.8501 63.9521C48.9254 62.4715 48.6057 60.922 48.8911 59.3035C49.3943 56.4497 51.01 54.3851 53.7382 53.1094C56.509 51.8413 59.449 51.4814 62.5583 52.0296C64.6453 52.3976 66.4656 53.1578 68.0191 54.31C69.5726 55.4623 70.2167 56.9154 69.9514 58.6692C69.7712 59.6914 69.3654 60.4982 68.7341 61.0896C68.1028 61.6809 67.34 61.8977 66.4455 61.74C65.5937 61.5898 65.2028 61.1915 65.2728 60.5451Z" fill="url(#paint8_linear_1323_1890)"/>
<path d="M84.9198 69.8258L86.0055 66.6576C86.0881 66.189 86.0141 65.7368 85.7836 65.3009C85.553 64.865 85.2035 64.6058 84.735 64.5231C83.159 64.2453 81.5858 65.1975 80.0152 67.38C78.4521 69.5198 77.4791 71.6758 77.096 73.8481C76.713 76.0203 76.8486 77.8668 77.5027 79.3874C78.1643 80.8655 79.134 81.7172 80.4118 81.9425C81.7322 82.1754 82.9561 82.0837 84.0834 81.6677C85.2108 81.2516 86.2981 80.565 87.3452 79.6078C89.5471 77.5806 91.5499 75.1889 93.3534 72.4327C93.8293 71.7262 94.1825 71.2175 94.413 70.9068C94.686 70.6036 94.929 70.4708 95.142 70.5083C95.3975 70.5534 95.4953 70.7463 95.4352 71.0871C95.1874 72.4926 94.4009 74.0887 93.0758 75.8752C91.7507 77.6617 90.6535 79.0273 89.7842 79.972C88.9651 80.8816 87.943 81.8212 86.718 82.791C84.1678 84.8007 81.2955 85.5239 78.101 84.9606C75.6732 84.5325 73.9706 83.354 72.9932 81.425C72.066 79.4609 71.7751 77.4992 72.1205 75.5399C72.9767 70.6843 74.6699 67.184 77.2 65.0391C79.7803 62.859 82.689 62.0544 85.926 62.6251C87.289 62.8655 88.29 63.4153 88.929 64.2745C89.6181 65.0987 89.8838 65.958 89.726 66.8525C89.4331 68.5136 88.9172 69.6962 88.1782 70.4003C87.4392 71.1045 86.6438 71.3814 85.7919 71.2312C85.0678 71.1035 84.7772 70.6351 84.9198 69.8258Z" fill="url(#paint9_linear_1323_1890)"/>
<path d="M113.095 71.2465C114.897 70.9932 116.151 70.7313 116.857 70.4606C117.614 70.1548 118.181 69.9255 118.56 69.7726L119.405 69.4606C119.641 69.3703 119.822 69.3365 119.95 69.359C120.291 69.4191 120.427 69.6408 120.36 70.0241C120.292 70.4075 119.512 70.9726 118.019 71.7194C116.533 72.4236 114.743 72.9863 112.649 73.4075C111.72 76.9327 110.08 79.63 107.73 81.4994C105.381 83.3687 102.395 83.9842 98.775 83.3459C96.1343 82.8802 94.2951 81.48 93.2575 79.1451C92.2275 76.7676 91.9603 74.1733 92.456 71.3622C92.9592 68.5084 94.2629 65.9715 96.3671 63.7515C98.5139 61.5389 100.908 60.6654 103.548 61.1311C104.891 60.4895 106.372 60.3114 107.99 60.5968C109.652 60.8897 111.031 62.0332 112.129 64.0274C113.226 66.0215 113.549 68.4279 113.095 71.2465ZM108.368 73.7726L106.046 73.4949C104.086 73.1494 102.527 72.2815 101.366 70.8912C100.214 69.4582 99.7613 68.039 100.009 66.6334C100.257 65.2278 100.705 64.0553 101.354 63.1156C99.2672 64.2409 97.8482 66.9331 97.0972 71.1924C96.7367 73.2369 96.8172 75.2712 97.3386 77.2955C97.8675 79.2772 99.0477 80.4295 100.879 80.7525C102.711 81.0754 104.273 80.5603 105.565 79.2072C106.865 77.8116 107.8 76 108.368 73.7726ZM106.277 62.4686C105.596 62.3484 105.007 62.574 104.511 63.1453C104.022 63.674 103.714 64.3004 103.587 65.0245C103.309 66.6004 103.616 67.972 104.508 69.1394C105.443 70.3143 106.634 71.0295 108.082 71.2848L108.849 71.42C109.132 69.3179 109.104 67.3587 108.765 65.5423C108.469 63.7335 107.64 62.7089 106.277 62.4686Z" fill="url(#paint10_linear_1323_1890)"/>
<path d="M131.563 71.5295C126.936 78.0918 123.452 81.1664 121.109 80.7533C118.809 80.3478 117.495 79.8306 117.167 79.2018C116.881 78.5805 117.012 76.7152 117.56 73.6059C118.109 70.4966 119.199 66.0557 120.832 60.283C118.777 59.4815 117.802 58.4094 117.908 57.0665C118.028 56.385 118.535 56.1231 119.429 56.2808C120.324 56.4385 121.082 56.7478 121.703 57.2087C122.627 54.2096 123.623 51.1792 124.69 48.1175C124.96 47.3308 125.5 46.6354 126.309 46.0315C127.118 45.4276 127.842 45.182 128.481 45.2946C129.035 45.3923 129.158 46.3142 128.85 48.0605C128.707 48.8698 127.752 52.5441 125.984 59.0834C127.172 59.0733 128.503 58.8689 129.979 58.4703C131.497 58.0793 132.384 57.9063 132.639 57.9513C133.406 58.0865 133.748 58.3884 133.665 58.8569C133.633 59.2903 132.74 59.7477 130.986 60.229C129.24 60.6677 127.396 60.9134 125.454 60.9663C123.847 67.0948 122.761 71.7562 122.198 74.9507C121.898 76.6544 122.003 77.5513 122.514 77.6414C123.288 77.734 124.468 77.0198 126.054 75.4988C127.64 73.9778 129.294 71.942 131.017 69.3912C132.791 66.8054 133.805 65.535 134.061 65.5801C134.359 65.6326 134.478 65.8293 134.418 66.17C134.208 67.3626 133.256 69.1491 131.563 71.5295Z" fill="url(#paint11_linear_1323_1890)"/>
<path d="M146.151 70.2532C141.524 76.8155 138.04 79.8901 135.697 79.4771C133.397 79.0715 132.083 78.5543 131.754 77.9255C131.469 77.3042 131.6 75.4389 132.148 72.3296C132.697 69.2204 133.787 64.7794 135.42 59.0067C133.365 58.2053 132.39 57.1331 132.495 55.7902C132.616 55.1087 133.123 54.8468 134.017 55.0045C134.912 55.1622 135.67 55.4716 136.291 55.9325C137.215 52.9334 138.211 49.903 139.278 46.8412C139.548 46.0545 140.088 45.3591 140.897 44.7552C141.706 44.1513 142.43 43.9057 143.069 44.0183C143.623 44.116 143.746 45.0379 143.438 46.7843C143.295 47.5935 142.34 51.2678 140.572 57.8072C141.759 57.797 143.091 57.5926 144.567 57.194C146.085 56.803 146.972 56.63 147.227 56.6751C147.994 56.8102 148.336 57.1121 148.253 57.5806C148.221 58.014 147.328 58.4714 145.574 58.9527C143.828 59.3914 141.984 59.6372 140.042 59.69C138.435 65.8185 137.349 70.4799 136.786 73.6744C136.486 75.3781 136.591 76.275 137.102 76.3652C137.876 76.4577 139.056 75.7435 140.642 74.2225C142.228 72.7015 143.882 70.6657 145.605 68.1149C147.379 65.5291 148.393 64.2587 148.649 64.3038C148.947 64.3564 149.066 64.553 149.006 64.8938C148.796 66.0864 147.844 67.8729 146.151 70.2532Z" fill="url(#paint12_linear_1323_1890)"/>
</g>
</g>
<defs>
<filter id="filter0_dii_1323_1890" x="-208.081" y="-104.041" width="616.164" height="505.431" filterUnits="userSpaceOnUse" color-interpolation-filters="sRGB">
<feFlood flood-opacity="0" result="BackgroundImageFix"/>
<feColorMatrix in="SourceAlpha" type="matrix" values="0 0 0 0 0 0 0 0 0 0 0 0 0 0 0 0 0 0 127 0" result="hardAlpha"/>
<feOffset dy="104.041"/>
<feGaussianBlur stdDeviation="104.041"/>
<feColorMatrix type="matrix" values="0 0 0 0 0.2 0 0 0 0 0.2 0 0 0 0 0.2 0 0 0 0.25 0"/>
<feBlend mode="normal" in2="BackgroundImageFix" result="effect1_dropShadow_1323_1890"/>
<feBlend mode="normal" in="SourceGraphic" in2="effect1_dropShadow_1323_1890" result="shape"/>
<feColorMatrix in="SourceAlpha" type="matrix" values="0 0 0 0 0 0 0 0 0 0 0 0 0 0 0 0 0 0 127 0" result="hardAlpha"/>
<feOffset dy="34.6802"/>
<feGaussianBlur stdDeviation="17.3401"/>
<feComposite in2="hardAlpha" operator="arithmetic" k2="-1" k3="1"/>
<feColorMatrix type="matrix" values="0 0 0 0 1 0 0 0 0 1 0 0 0 0 1 0 0 0 1 0"/>
<feBlend mode="normal" in2="shape" result="effect2_innerShadow_1323_1890"/>
<feColorMatrix in="SourceAlpha" type="matrix" values="0 0 0 0 0 0 0 0 0 0 0 0 0 0 0 0 0 0 127 0" result="hardAlpha"/>
<feOffset dy="-34.6802"/>
<feGaussianBlur stdDeviation="17.3401"/>
<feComposite in2="hardAlpha" operator="arithmetic" k2="-1" k3="1"/>
<feColorMatrix type="matrix" values="0 0 0 0 0.8 0 0 0 0 0.8 0 0 0 0 0.8 0 0 0 1 0"/>
<feBlend mode="normal" in2="effect2_innerShadow_1323_1890" result="effect3_innerShadow_1323_1890"/>
</filter>
<linearGradient id="paint0_linear_1323_1890" x1="100.001" y1="0" x2="100.001" y2="89.2683" gradientUnits="userSpaceOnUse">
<stop stop-color="white"/>
<stop offset="1" stop-color="#D6D6D6"/>
</linearGradient>
<linearGradient id="paint1_linear_1323_1890" x1="100.001" y1="0" x2="100.001" y2="89.2683" gradientUnits="userSpaceOnUse">
<stop stop-color="white"/>
<stop offset="1" stop-color="#D6D6D6"/>
</linearGradient>
<linearGradient id="paint2_linear_1323_1890" x1="100.001" y1="0" x2="100.001" y2="89.2683" gradientUnits="userSpaceOnUse">
<stop stop-color="white"/>
<stop offset="1" stop-color="#D6D6D6"/>
</linearGradient>
<linearGradient id="paint3_linear_1323_1890" x1="100.001" y1="0" x2="100.001" y2="89.2683" gradientUnits="userSpaceOnUse">
<stop stop-color="white"/>
<stop offset="1" stop-color="#D6D6D6"/>
</linearGradient>
<linearGradient id="paint4_linear_1323_1890" x1="100.001" y1="0" x2="100.001" y2="89.2683" gradientUnits="userSpaceOnUse">
<stop stop-color="white"/>
<stop offset="1" stop-color="#D6D6D6"/>
</linearGradient>
<linearGradient id="paint5_linear_1323_1890" x1="100.001" y1="0" x2="100.001" y2="89.2683" gradientUnits="userSpaceOnUse">
<stop stop-color="white"/>
<stop offset="1" stop-color="#D6D6D6"/>
</linearGradient>
<linearGradient id="paint6_linear_1323_1890" x1="100.001" y1="0" x2="100.001" y2="89.2683" gradientUnits="userSpaceOnUse">
<stop stop-color="white"/>
<stop offset="1" stop-color="#D6D6D6"/>
</linearGradient>
<linearGradient id="paint7_linear_1323_1890" x1="100.001" y1="0" x2="100.001" y2="89.2683" gradientUnits="userSpaceOnUse">
<stop stop-color="white"/>
<stop offset="1" stop-color="#D6D6D6"/>
</linearGradient>
<linearGradient id="paint8_linear_1323_1890" x1="100.001" y1="0" x2="100.001" y2="89.2683" gradientUnits="userSpaceOnUse">
<stop stop-color="white"/>
<stop offset="1" stop-color="#D6D6D6"/>
</linearGradient>
<linearGradient id="paint9_linear_1323_1890" x1="100.001" y1="0" x2="100.001" y2="89.2683" gradientUnits="userSpaceOnUse">
<stop stop-color="white"/>
<stop offset="1" stop-color="#D6D6D6"/>
</linearGradient>
<linearGradient id="paint10_linear_1323_1890" x1="100.001" y1="0" x2="100.001" y2="89.2683" gradientUnits="userSpaceOnUse">
<stop stop-color="white"/>
<stop offset="1" stop-color="#D6D6D6"/>
</linearGradient>
<linearGradient id="paint11_linear_1323_1890" x1="100.001" y1="0" x2="100.001" y2="89.2683" gradientUnits="userSpaceOnUse">
<stop stop-color="white"/>
<stop offset="1" stop-color="#D6D6D6"/>
</linearGradient>
<linearGradient id="paint12_linear_1323_1890" x1="100.001" y1="0" x2="100.001" y2="89.2683" gradientUnits="userSpaceOnUse">
<stop stop-color="white"/>
<stop offset="1" stop-color="#D6D6D6"/>
</linearGradient>
</defs>
</svg>
