<svg width="12" height="20" viewBox="0 0 12 20" fill="none" xmlns="http://www.w3.org/2000/svg">
<path d="M5.99707 2.1547C5.78663 3.54361 6.73361 4.86938 8.12251 5.07982C9.51142 5.31131 10.8161 4.34328 11.0476 2.95438C11.2581 1.56547 10.3111 0.239698 8.92219 0.029258C7.53328 -0.181182 6.20751 0.765799 5.99707 2.1547Z" fill="black"/>
<path d="M2.20913 8.5731C1.85139 9.07815 1.26215 9.41486 0.588745 9.41486C0.273085 9.41486 -0.000488281 9.66739 -0.000488281 9.98305C-0.000488281 10.2987 0.252041 10.5512 0.567701 10.5512C1.89347 10.5512 3.02985 9.73052 3.49282 8.55205C4.39771 8.48892 5.80766 8.3837 7.30179 8.23639L5.84469 11.9822L3.44567 12.4031C3.00375 12.4873 2.62496 12.8029 2.45661 13.2238L0.499512 18.2113C0.22594 18.8847 0.562644 19.6423 1.23605 19.9158C1.4044 19.979 1.55171 20 1.72007 20C2.24617 20 2.73018 19.6843 2.94062 19.1582L4.62414 14.8442L5.69739 14.6548L5.40277 16.17C5.31859 16.6119 5.44486 17.0328 5.76052 17.3485L8.01223 19.6212C8.26476 19.8737 8.60146 20 8.93817 20C9.27487 20 9.61157 19.8737 9.8641 19.6212C10.3692 19.1161 10.3692 18.2744 9.8641 17.7693L8.09641 16.0016L8.43311 14.2129L9.12756 14.1077C9.77993 14.0235 10.2428 13.3776 10.2429 12.7819L10.2428 12.7775C10.5 11.9822 12.0361 8.21306 11.7 7.01584C11.4475 6.11095 10.5426 5.58485 9.51141 5.69007C7.47014 5.96364 4.90277 6.17408 3.51386 6.25825C3.02985 5.10083 1.91452 4.28012 0.588745 4.28012C0.273085 4.28012 0.0205554 4.53264 0.0205554 4.8483C0.0205554 5.16396 0.273085 5.41649 0.588745 5.41649C1.30424 5.41649 1.91452 5.79528 2.27227 6.34243C1.72512 6.44765 1.30424 6.93166 1.34633 7.5209C1.36737 8.047 1.72512 8.44683 2.20913 8.5731Z" fill="black"/>
</svg>
