<svg width="100" height="69" viewBox="0 0 100 69" fill="none" xmlns="http://www.w3.org/2000/svg">
<path d="M43.2692 42.9243H1.92308C1.41305 42.9243 0.923903 42.7217 0.563257 42.361C0.20261 42.0004 0 41.5112 0 41.0012V1.92308C0 1.41305 0.20261 0.923903 0.563257 0.563257C0.923903 0.20261 1.41305 0 1.92308 0H76.4808C76.9908 0 77.4799 0.20261 77.8406 0.563257C78.2012 0.923903 78.4038 1.41305 78.4038 1.92308V14.6875C78.4038 15.1975 78.2012 15.6867 77.8406 16.0473C77.4799 16.408 76.9908 16.6106 76.4808 16.6106C75.9707 16.6106 75.4816 16.408 75.1209 16.0473C74.7603 15.6867 74.5577 15.1975 74.5577 14.6875V3.84615H3.84615V39.0781H43.2692C43.7793 39.0781 44.2684 39.2807 44.6291 39.6414C44.9897 40.002 45.1923 40.4912 45.1923 41.0012C45.1923 41.5112 44.9897 42.0004 44.6291 42.361C44.2684 42.7217 43.7793 42.9243 43.2692 42.9243Z" fill="#333333"/>
<path d="M43.2692 52.4207H32.2319C31.7219 52.4207 31.2327 52.2181 30.8721 51.8574C30.5114 51.4968 30.3088 51.0076 30.3088 50.4976V41.0024C30.3088 40.4924 30.5114 40.0032 30.8721 39.6426C31.2327 39.282 31.7219 39.0793 32.2319 39.0793C32.7419 39.0793 33.2311 39.282 33.5917 39.6426C33.9524 40.0032 34.155 40.4924 34.155 41.0024V48.5745H43.2692C43.7792 48.5745 44.2683 48.7771 44.629 49.1378C44.9896 49.4984 45.1922 49.9876 45.1922 50.4976C45.1922 51.0076 44.9896 51.4968 44.629 51.8574C44.2683 52.2181 43.7792 52.4207 43.2692 52.4207Z" fill="#333333"/>
<path d="M43.2693 58.9147H24.5037C23.9936 58.9147 23.5045 58.7121 23.1438 58.3514C22.7832 57.9908 22.5806 57.5016 22.5806 56.9916C22.579 55.8984 22.7928 54.8156 23.2098 53.8051C23.6268 52.7946 24.2388 51.8761 25.0109 51.1022C26.5564 49.5386 28.6472 48.634 30.845 48.5781H43.2693C43.7793 48.5781 44.2685 48.7807 44.6291 49.1414C44.9897 49.502 45.1924 49.9912 45.1924 50.5012C45.1924 51.0112 44.9897 51.5004 44.6291 51.861C44.2685 52.2217 43.7793 52.4243 43.2693 52.4243H30.9291C29.7286 52.461 28.5881 52.958 27.744 53.8125C27.3798 54.1794 27.0804 54.6053 26.8582 55.0721H43.2693C43.7793 55.0721 44.2685 55.2747 44.6291 55.6354C44.9897 55.996 45.1924 56.4852 45.1924 56.9952C45.1924 57.5052 44.9897 57.9944 44.6291 58.355C44.2685 58.7157 43.7793 58.9183 43.2693 58.9183V58.9147Z" fill="#333333"/>
<path d="M94.2512 68.9904H75.2236C73.6995 68.9894 72.238 68.384 71.1596 67.307C70.0813 66.23 69.4741 64.7693 69.4712 63.2452V26.2993C69.4737 24.775 70.0808 23.3139 71.1592 22.2366C72.2376 21.1593 73.6993 20.5538 75.2236 20.5529H94.2512C95.7749 20.5548 97.2357 21.1607 98.3133 22.2379C99.3909 23.3151 99.9975 24.7756 100 26.2993V63.2452C99.9972 64.7686 99.3905 66.2288 98.3129 67.3057C97.2353 68.3827 95.7747 68.9884 94.2512 68.9904ZM75.2236 24.399C74.719 24.3987 74.2348 24.5986 73.8774 24.9549C73.5201 25.3111 73.3186 25.7946 73.3173 26.2993V63.2452C73.3193 63.7495 73.5209 64.2325 73.8782 64.5884C74.2355 64.9444 74.7193 65.1442 75.2236 65.1442H94.2512C94.755 65.1436 95.2381 64.9434 95.5946 64.5875C95.9512 64.2316 96.1523 63.749 96.1539 63.2452V26.2993C96.1526 25.7952 95.9517 25.3123 95.5951 24.9561C95.2385 24.6 94.7552 24.3996 94.2512 24.399H75.2236Z" fill="#333333"/>
<path d="M98.077 34.2548H71.3943C70.8842 34.2548 70.3951 34.0522 70.0344 33.6915C69.6738 33.3309 69.4712 32.8417 69.4712 32.3317C69.4712 31.8217 69.6738 31.3325 70.0344 30.9719C70.3951 30.6112 70.8842 30.4086 71.3943 30.4086H98.077C98.587 30.4086 99.0761 30.6112 99.4368 30.9719C99.7974 31.3325 100 31.8217 100 32.3317C100 32.8417 99.7974 33.3309 99.4368 33.6915C99.0761 34.0522 98.587 34.2548 98.077 34.2548Z" fill="#333333"/>
<path d="M98.077 59.1346H71.3943C70.8842 59.1346 70.3951 58.932 70.0344 58.5714C69.6738 58.2107 69.4712 57.7216 69.4712 57.2115C69.4712 56.7015 69.6738 56.2124 70.0344 55.8517C70.3951 55.4911 70.8842 55.2885 71.3943 55.2885H98.077C98.587 55.2885 99.0761 55.4911 99.4368 55.8517C99.7974 56.2124 100 56.7015 100 57.2115C100 57.7216 99.7974 58.2107 99.4368 58.5714C99.0761 58.932 98.587 59.1346 98.077 59.1346Z" fill="#333333"/>
<path d="M87.8714 29.3149H81.6022C81.0921 29.3149 80.603 29.1123 80.2423 28.7516C79.8817 28.391 79.6791 27.9019 79.6791 27.3918C79.6791 26.8818 79.8817 26.3927 80.2423 26.032C80.603 25.6714 81.0921 25.4688 81.6022 25.4688H87.8714C88.3814 25.4688 88.8706 25.6714 89.2312 26.032C89.5919 26.3927 89.7945 26.8818 89.7945 27.3918C89.7945 27.9019 89.5919 28.391 89.2312 28.7516C88.8706 29.1123 88.3814 29.3149 87.8714 29.3149Z" fill="#333333"/>
<path d="M87.8714 64.0769H81.6022C81.0921 64.0769 80.603 63.8743 80.2423 63.5137C79.8817 63.153 79.6791 62.6639 79.6791 62.1539C79.6791 61.6438 79.8817 61.1547 80.2423 60.794C80.603 60.4334 81.0921 60.2308 81.6022 60.2308H87.8714C88.3814 60.2308 88.8706 60.4334 89.2312 60.794C89.5919 61.1547 89.7945 61.6438 89.7945 62.1539C89.7945 62.6639 89.5919 63.153 89.2312 63.5137C88.8706 63.8743 88.3814 64.0769 87.8714 64.0769Z" fill="#333333"/>
<path d="M77.7645 68.9904H46.8486C45.3899 68.9875 43.9919 68.4067 42.9605 67.3752C41.9292 66.3436 41.3487 64.9454 41.3462 63.4868V18.2692C41.3475 16.8092 41.9279 15.4094 42.9602 14.3769C43.9925 13.3444 45.3922 12.7636 46.8522 12.762H77.7645C79.2239 12.7646 80.6229 13.3457 81.6546 14.3781C82.6862 15.4104 83.2665 16.8097 83.2681 18.2692V22.476C83.2681 22.986 83.0655 23.4751 82.7048 23.8358C82.3442 24.1964 81.855 24.399 81.345 24.399C80.835 24.399 80.3458 24.1964 79.9852 23.8358C79.6245 23.4751 79.4219 22.986 79.4219 22.476V18.2692C79.4219 17.8291 79.2475 17.4069 78.9368 17.0951C78.6262 16.7833 78.2046 16.6074 77.7645 16.6058H46.8486C46.4086 16.6074 45.9871 16.7834 45.6767 17.0952C45.3662 17.407 45.192 17.8292 45.1923 18.2692V63.4868C45.1936 63.9258 45.3685 64.3464 45.6788 64.657C45.9891 64.9675 46.4096 65.1427 46.8486 65.1442H77.7645C78.2745 65.1442 78.7636 65.3468 79.1243 65.7075C79.4849 66.0681 79.6875 66.5573 79.6875 67.0673C79.6875 67.5773 79.4849 68.0665 79.1243 68.4271C78.7636 68.7878 78.2745 68.9904 77.7645 68.9904Z" fill="#333333"/>
<path d="M71.5866 26.8402H43.2693C42.7592 26.8402 42.2701 26.6376 41.9094 26.2769C41.5488 25.9163 41.3462 25.4271 41.3462 24.9171C41.3462 24.4071 41.5488 23.9179 41.9094 23.5573C42.2701 23.1966 42.7592 22.994 43.2693 22.994H71.5866C72.0966 22.994 72.5857 23.1966 72.9464 23.5573C73.307 23.9179 73.5097 24.4071 73.5097 24.9171C73.5097 25.4271 73.307 25.9163 72.9464 26.2769C72.5857 26.6376 72.0966 26.8402 71.5866 26.8402Z" fill="#333333"/>
<path d="M70.2957 58.7596H43.2693C42.7592 58.7596 42.2701 58.557 41.9094 58.1964C41.5488 57.8357 41.3462 57.3466 41.3462 56.8365C41.3462 56.3265 41.5488 55.8374 41.9094 55.4767C42.2701 55.1161 42.7592 54.9135 43.2693 54.9135H70.2957C70.8057 54.9135 71.2949 55.1161 71.6555 55.4767C72.0162 55.8374 72.2188 56.3265 72.2188 56.8365C72.2188 57.3466 72.0162 57.8357 71.6555 58.1964C71.2949 58.557 70.8057 58.7596 70.2957 58.7596Z" fill="#333333"/>
<path d="M66.3654 63.8774H58.244C57.734 63.8774 57.2448 63.6748 56.8842 63.3141C56.5235 62.9535 56.3209 62.4644 56.3209 61.9543C56.3209 61.4443 56.5235 60.9552 56.8842 60.5945C57.2448 60.2339 57.734 60.0312 58.244 60.0312H66.3654C66.8754 60.0312 67.3646 60.2339 67.7252 60.5945C68.0859 60.9552 68.2885 61.4443 68.2885 61.9543C68.2885 62.4644 68.0859 62.9535 67.7252 63.3141C67.3646 63.6748 66.8754 63.8774 66.3654 63.8774Z" fill="#333333"/>
<path d="M66.3654 21.7224H58.244C57.734 21.7224 57.2448 21.5198 56.8842 21.1591C56.5235 20.7985 56.3209 20.3093 56.3209 19.7993C56.3209 19.2893 56.5235 18.8001 56.8842 18.4395C57.2448 18.0788 57.734 17.8762 58.244 17.8762H66.3654C66.8754 17.8762 67.3646 18.0788 67.7252 18.4395C68.0859 18.8001 68.2885 19.2893 68.2885 19.7993C68.2885 20.3093 68.0859 20.7985 67.7252 21.1591C67.3646 21.5198 66.8754 21.7224 66.3654 21.7224Z" fill="#333333"/>
</svg>
