<svg width="41" height="41" viewBox="0 0 41 41" fill="none" xmlns="http://www.w3.org/2000/svg">
<path d="M39.4371 25.9128C40.1216 26.9 40.2213 28.1806 39.6966 29.2618C38.6831 31.3698 37.3273 33.2935 35.6856 34.9577C31.8006 38.8333 26.5295 40.9978 21.0425 40.9752C15.5628 40.9733 10.3069 38.7976 6.42974 34.9279C2.55036 31.056 0.365108 25.804 0.352111 20.3242C0.338948 14.8445 2.49957 9.58331 6.35994 5.69411C8.02413 4.05057 9.94971 2.69477 12.0577 1.68123C13.139 1.15848 14.4196 1.25813 15.4068 1.94262C16.4298 2.66847 16.9883 3.88322 16.8717 5.13187C16.4054 10.3897 18.2914 15.5835 22.0241 19.3143C25.7568 23.047 30.9506 24.9331 36.2065 24.4686C37.4664 24.3276 38.7019 24.8804 39.4371 25.9128ZM29.4087 9.10335L30.7927 9.84615H30.7908C31.0955 10.0286 31.3493 10.2843 31.5336 10.5871L32.2764 11.9711C32.6487 12.5258 33.273 12.8587 33.9406 12.8587C34.6082 12.8587 35.2325 12.5258 35.6048 11.9711L36.3476 10.5871C36.53 10.2768 36.7932 10.0192 37.1092 9.84615L38.4537 9.10335C39.0084 8.73102 39.3413 8.10672 39.3413 7.43917C39.3413 6.76974 39.0084 6.14541 38.4537 5.7731L37.0904 5.03031V5.03219C36.7707 4.85167 36.5075 4.5884 36.3269 4.26874L35.586 2.90543C35.2137 2.35071 34.5894 2.01783 33.9199 2.01783C33.2524 2.01783 32.6281 2.35067 32.2558 2.90543L31.513 4.26874C31.34 4.58654 31.0823 4.84979 30.772 5.03219L29.388 5.77498V5.7731C28.8333 6.14543 28.5004 6.76974 28.5004 7.43917C28.5004 8.10672 28.8333 8.73104 29.388 9.10335H29.4087ZM39.9787 17.949L39.2961 17.5673C39.1381 17.4845 39.0103 17.3492 38.935 17.1874L38.4536 16.5048C38.2806 16.2077 37.9647 16.0253 37.6206 16.0253C37.2783 16.0253 36.9605 16.2077 36.7894 16.5048L36.4284 17.1874C36.3381 17.3454 36.2065 17.4789 36.0466 17.5673L35.364 17.949C35.0575 18.1126 34.8638 18.4323 34.8638 18.7821C34.8638 19.13 35.0575 19.4496 35.364 19.6132L36.0466 19.9743C36.2008 20.0702 36.3325 20.2018 36.4284 20.356L36.7894 21.0387C36.9662 21.3395 37.2971 21.5163 37.645 21.4994C37.9948 21.4824 38.305 21.2737 38.4536 20.9578L38.8353 20.2752C38.9162 20.1172 39.0422 19.9856 39.1964 19.8953L39.879 19.5343H39.8771C40.1554 19.3744 40.3341 19.083 40.351 18.7633C40.366 18.4436 40.2194 18.1352 39.958 17.949L39.9787 17.949ZM20.4013 4.49061L21.003 4.91184C21.1572 5.00586 21.2889 5.13749 21.3848 5.29169L21.7458 5.97431C21.9094 6.2827 22.2291 6.47453 22.577 6.47453C22.9267 6.47453 23.2464 6.28272 23.41 5.97431L23.7918 5.29169C23.8802 5.13373 24.0137 5.00022 24.1716 4.91184L24.8542 4.55079C25.1514 4.37778 25.3338 4.06001 25.3338 3.71773C25.3338 3.37546 25.1514 3.05769 24.8542 2.88468L24.1716 2.50294V2.50482C24.0099 2.42961 23.8745 2.30173 23.7918 2.14378L23.41 1.46116C23.2464 1.15276 22.9268 0.960938 22.577 0.960938C22.2291 0.960938 21.9094 1.15274 21.7458 1.46116L21.3848 2.14378C21.2945 2.29797 21.161 2.42208 21.003 2.50482L20.4013 2.90536C20.1324 3.07836 19.9688 3.37736 19.9688 3.69702C19.9688 4.01858 20.1324 4.31577 20.4013 4.49061Z" fill="black"/>
</svg>
