<svg width="40" height="41" viewBox="0 0 40 41" fill="none" xmlns="http://www.w3.org/2000/svg">
<path d="M30.7003 20.832C30.7003 23.6707 29.5716 26.3912 27.5654 28.3975C25.5592 30.4037 22.8387 31.5324 19.9999 31.5324C17.1611 31.5324 14.4407 30.4037 12.4344 28.3975C10.4282 26.3914 9.29952 23.6708 9.29952 20.832C9.29952 17.9933 10.4282 15.2729 12.4344 13.2665C14.4406 11.2603 17.1611 10.1316 19.9999 10.1316C22.8367 10.1373 25.5552 11.266 27.5597 13.2722C29.5658 15.2765 30.6946 17.9952 30.7003 20.832ZM20 33.9116C19.6306 33.906 19.2744 34.0485 19.0119 34.3091C18.7475 34.5678 18.5994 34.9222 18.5994 35.2916V39.4314C18.5994 40.2039 19.2275 40.832 20 40.832C20.7725 40.832 21.4006 40.2039 21.4006 39.4314V35.2916C21.4006 34.9222 21.2525 34.5678 20.9881 34.3091C20.7256 34.0485 20.3693 33.906 20 33.9116ZM8.78036 30.0717L5.8611 32.991C5.31176 33.546 5.31176 34.4384 5.8611 34.9916C6.11609 35.2597 6.47044 35.4116 6.83983 35.4116C7.2167 35.4116 7.57671 35.2597 7.84103 34.9916L10.7603 32.0723C11.3134 31.5192 11.3134 30.6249 10.7603 30.0717C10.2072 29.5186 9.31286 29.5186 8.75972 30.0717H8.78036ZM6.92042 20.832C6.92605 20.4627 6.78355 20.1064 6.52294 19.8439C6.2642 19.5796 5.90986 19.4314 5.54046 19.4314H1.40059C0.628108 19.4314 0 20.0596 0 20.832C0 21.6045 0.628108 22.2326 1.40059 22.2326H5.54046C5.90982 22.2326 6.26418 22.0845 6.52294 21.8201C6.78356 21.5577 6.92605 21.2014 6.92042 20.832ZM8.78036 11.5923C9.33345 12.1417 10.2259 12.1417 10.7809 11.5923C11.3303 11.0392 11.3303 10.1468 10.7809 9.59176L7.84103 6.69308C7.28795 6.14 6.39359 6.14 5.84046 6.69308C5.28737 7.2443 5.28737 8.14052 5.84046 8.69179L8.78036 11.5923ZM20 7.75246C20.3694 7.75808 20.7256 7.61558 20.9881 7.35497C21.2525 7.09623 21.4006 6.74189 21.4006 6.37249V2.23263C21.4006 1.46014 20.7725 0.832031 20 0.832031C19.2275 0.832031 18.5994 1.46014 18.5994 2.23263V6.37249C18.5994 6.74185 18.7475 7.09621 19.0119 7.35497C19.2744 7.61559 19.6307 7.75808 20 7.75246ZM30.239 11.9917C30.6065 11.9898 30.9571 11.8473 31.2196 11.5923L34.1389 8.67305C34.692 8.11997 34.692 7.22561 34.1389 6.67248C33.5877 6.11939 32.6915 6.11939 32.1402 6.67248L29.2397 9.61238C28.6903 10.1655 28.6903 11.0579 29.2397 11.613C29.5134 11.8586 29.8716 11.9954 30.239 11.9917ZM38.5994 19.4314H34.4802C33.7058 19.4314 33.0796 20.0595 33.0796 20.832C33.0796 21.6045 33.7058 22.2326 34.4802 22.2326H38.5994C39.3719 22.2326 40 21.6045 40 20.832C40 20.0595 39.3719 19.4314 38.5994 19.4314ZM31.2196 30.0717C30.6665 29.5186 29.7722 29.5186 29.2191 30.0717C28.6678 30.6248 28.6678 31.5192 29.2191 32.0723L32.1383 34.9916H32.1402C32.4027 35.2597 32.7627 35.4116 33.1395 35.4116C33.5089 35.4116 33.8632 35.2597 34.1201 34.9916C34.6695 34.4385 34.6695 33.546 34.1201 32.991L31.2196 30.0717Z" fill="white"/>
</svg>
