<svg width="100" height="111" viewBox="0 0 100 111" fill="none" xmlns="http://www.w3.org/2000/svg">
<path d="M96.921 85.4744L51.9741 110.902V91.1019L79.9794 75.6924L96.921 85.4744ZM100 82.69V29.5227L83.5592 39.0247V73.2027L100 82.69ZM3.07896 85.4744L48.0259 110.902V91.1019L20.0059 75.6924L3.07896 85.4744ZM0 82.69V29.5227L16.4408 39.0247V73.2027L0 82.69ZM1.92988 26.0754L48.0259 0V19.1367L18.4885 35.386L18.2528 35.5186L1.92988 26.0754ZM98.0701 26.0754L51.9741 0V19.1367L81.5115 35.3712L81.7472 35.5038L98.0701 26.0754Z" fill="#333333"/>
<path d="M47.5343 58.4038V86.6153L20.8973 71.9621V43.0265L47.5343 58.4038ZM79.1195 71.9767L52.4825 86.6157V58.4038L79.1195 43.0265V71.9767ZM23.2869 38.6945L50.0084 24.0068L76.7299 38.6945L50.0084 54.12L23.2869 38.6945Z" fill="#333333" stroke="#333333"/>
</svg>
